<svg width="65" height="55" viewBox="0 0 65 55" fill="none" xmlns="http://www.w3.org/2000/svg">
<path d="M12.5282 14.6174H53.9073V9.8125C53.9073 9.33179 54.0963 8.87078 54.4326 8.53087C54.769 8.19096 55.2251 8 55.7008 8H62.7456C63.2212 8 63.6774 8.19096 64.0138 8.53087C64.3501 8.87078 64.5391 9.33179 64.5391 9.8125C64.5391 10.2932 64.3501 10.7542 64.0138 11.0941C63.6774 11.434 63.2212 11.625 62.7456 11.625H57.4943V16.4299C57.485 16.5008 57.4712 16.5711 57.453 16.6402C57.453 16.6964 57.4674 16.7526 57.453 16.8088L53.2222 36.8333C54.4389 36.9726 55.5567 37.5772 56.3464 38.523C57.136 39.4687 57.5376 40.684 57.4688 41.9196C57.4 43.1551 56.8659 44.3172 55.9763 45.1674C55.0866 46.0176 53.9087 46.4916 52.6842 46.4921H51.8771C51.9387 46.8234 51.9747 47.1592 51.9847 47.4962C51.9847 49.2387 51.2998 50.9099 50.0805 52.1421C48.8613 53.3743 47.2076 54.0665 45.4834 54.0665C43.7591 54.0665 42.1054 53.3743 40.8862 52.1421C39.667 50.9099 38.982 49.2387 38.982 47.4962C38.9898 47.1563 39.024 46.8175 39.0842 46.483H32.1399C32.2001 46.8175 32.2343 47.1563 32.2421 47.4962C32.2564 48.3681 32.0989 49.2341 31.7786 50.0439C31.4584 50.8536 30.9819 51.5908 30.3768 52.2125C29.7718 52.8342 29.0503 53.328 28.2545 53.665C27.4587 54.002 26.6045 54.1756 25.7416 54.1756C24.8788 54.1756 24.0246 54.002 23.2288 53.665C22.433 53.328 21.7115 52.8342 21.1065 52.2125C20.5014 51.5908 20.0249 50.8536 19.7047 50.0439C19.3844 49.2341 19.2269 48.3681 19.2412 47.4962C19.249 47.1563 19.2832 46.8175 19.3434 46.483H17.4154C16.9398 46.483 16.4836 46.292 16.1472 45.9521C15.8109 45.6122 15.6219 45.1512 15.6219 44.6705C15.6219 44.1898 15.8109 43.7288 16.1472 43.3889C16.4836 43.049 16.9398 42.858 17.4154 42.858H21.1369C21.7397 42.2455 22.4564 41.7594 23.2457 41.4277C24.035 41.0961 24.8814 40.9253 25.7363 40.9253C26.5911 40.9253 27.4375 41.0961 28.2268 41.4277C29.0161 41.7594 29.7328 42.2455 30.3356 42.858H40.8831C41.4861 42.2454 42.2029 41.7593 42.9924 41.4276C43.7818 41.0959 44.6284 40.9252 45.4834 40.9252C46.3383 40.9252 47.1849 41.0959 47.9744 41.4276C48.7638 41.7593 49.4807 42.2454 50.0836 42.858H52.6913C52.8553 42.8644 53.0189 42.8372 53.1722 42.7782C53.3256 42.7192 53.4655 42.6295 53.5838 42.5145C53.702 42.3995 53.7961 42.2616 53.8603 42.109C53.9246 41.9564 53.9577 41.7922 53.9577 41.6264C53.9577 41.4606 53.9246 41.2965 53.8603 41.1439C53.7961 40.9913 53.702 40.8533 53.5838 40.7383C53.4655 40.6234 53.3256 40.5337 53.1722 40.4746C53.0189 40.4156 52.8553 40.3885 52.6913 40.3948H51.0665C51.0485 40.3948 51.0342 40.3948 51.0162 40.3948H12.5282C12.0525 40.3948 11.5964 40.2039 11.26 39.8639C10.9237 39.524 10.7347 39.063 10.7347 38.5823V16.4299C10.7347 15.9492 10.9237 15.4882 11.26 15.1483C11.5964 14.8084 12.0525 14.6174 12.5282 14.6174ZM22.8263 47.4962C22.8263 48.0788 22.9973 48.6483 23.3176 49.1327C23.638 49.6171 24.0932 49.9946 24.6259 50.2175C25.1585 50.4403 25.7446 50.4986 26.31 50.3848C26.8754 50.271 27.3947 49.9903 27.8022 49.5782C28.2097 49.1661 28.4871 48.6411 28.5994 48.0697C28.7116 47.4982 28.6537 46.906 28.4328 46.3678C28.2119 45.8297 27.8381 45.3698 27.3586 45.0464C26.8791 44.723 26.3154 44.5505 25.739 44.5509C24.9665 44.5518 24.2259 44.8625 23.6798 45.4147C23.1338 45.9669 22.8268 46.7155 22.8263 47.4962ZM42.569 47.4962C42.569 48.0787 42.7399 48.6482 43.0601 49.1325C43.3804 49.6169 43.8355 49.9944 44.3681 50.2173C44.9006 50.4402 45.4866 50.4986 46.0519 50.3849C46.6173 50.2713 47.1366 49.9907 47.5442 49.5788C47.9517 49.1669 48.2293 48.6421 48.3418 48.0708C48.4542 47.4995 48.3965 46.9073 48.1759 46.3691C47.9553 45.8309 47.5818 45.3709 47.1025 45.0473C46.6232 44.7236 46.0598 44.5509 45.4834 44.5509C44.7106 44.5514 43.9695 44.8618 43.4231 45.4141C42.8766 45.9663 42.5694 46.7152 42.569 47.4962ZM50.3257 33.1774H46.7029V36.7789H49.5635L50.3257 33.1774ZM51.0916 29.5524L51.9578 25.4562H46.7029V29.5524H51.0916ZM43.116 25.4562H35.908V29.5524H43.116V25.4562ZM32.321 25.4562H25.1148V29.5524H32.321V25.4562ZM21.5279 25.4562H14.3217V29.5524H21.5297L21.5279 25.4562ZM14.3199 21.8312H21.5297V18.2424H14.3217L14.3199 21.8312ZM25.1148 21.8312H32.321V18.2424H25.1148V21.8312ZM35.908 21.8312H43.116V18.2424H35.908V21.8312ZM46.7029 18.2424V21.833H52.7236L53.4841 18.2424H46.7029ZM43.116 33.1793H35.908V36.7789H43.116V33.1793ZM32.321 33.1793H25.1148V36.7789H32.321V33.1793ZM21.5279 36.7771V33.1811H14.3217V36.7789L21.5279 36.7771Z" fill="black"/>
<path d="M34.4828 17C34.4828 26.3888 26.9515 34 17.6612 34C8.37088 34 0.8396 26.3888 0.8396 17C0.8396 7.61116 8.37088 0 17.6612 0C26.9515 0 34.4828 7.61116 34.4828 17Z" fill="#FA1515"/>
</svg>
