<svg width="36" height="45" viewBox="0 0 36 45" fill="none" xmlns="http://www.w3.org/2000/svg">
<path d="M18.1213 0C13.5287 0 9.12421 1.89642 5.87677 5.27206C2.62933 8.6477 0.804932 13.2261 0.804932 17.9999C0.804932 30.1499 16.065 43.8749 16.7143 44.4599C17.1064 44.8084 17.6053 45 18.1213 45C18.6372 45 19.1362 44.8084 19.5282 44.4599C20.2858 43.8749 35.4376 30.1499 35.4376 17.9999C35.4376 13.2261 33.6132 8.6477 30.3658 5.27206C27.1183 1.89642 22.7139 0 18.1213 0ZM18.1213 39.7124C13.5108 35.2124 5.13402 25.5149 5.13402 17.9999C5.13402 14.4195 6.50231 10.9858 8.9379 8.45403C11.3735 5.9223 14.6768 4.49999 18.1213 4.49999C21.5657 4.49999 24.8691 5.9223 27.3046 8.45403C29.7402 10.9858 31.1085 14.4195 31.1085 17.9999C31.1085 25.5149 22.7317 35.2349 18.1213 39.7124ZM18.1213 8.99997C16.4088 8.99997 14.7349 9.52781 13.3111 10.5167C11.8872 11.5057 10.7775 12.9113 10.1222 14.5558C9.46685 16.2003 9.29539 18.0099 9.62946 19.7557C9.96354 21.5016 10.7882 23.1052 11.999 24.3639C13.2099 25.6225 14.7526 26.4797 16.4321 26.827C18.1117 27.1742 19.8525 26.996 21.4346 26.3148C23.0167 25.6336 24.3689 24.4801 25.3203 23.0001C26.2716 21.52 26.7794 19.78 26.7794 17.9999C26.7794 15.613 25.8672 13.3238 24.2435 11.636C22.6198 9.94818 20.4176 8.99997 18.1213 8.99997ZM18.1213 22.4999C17.2651 22.4999 16.4281 22.236 15.7162 21.7415C15.0042 21.2471 14.4494 20.5443 14.1217 19.722C13.7941 18.8997 13.7083 17.9949 13.8754 17.122C14.0424 16.2491 14.4547 15.4473 15.0601 14.818C15.6656 14.1886 16.4369 13.7601 17.2767 13.5864C18.1165 13.4128 18.9869 13.5019 19.7779 13.8425C20.569 14.1831 21.2451 14.7599 21.7208 15.4999C22.1965 16.2399 22.4504 17.1099 22.4504 17.9999C22.4504 19.1934 21.9943 20.338 21.1824 21.1819C20.3705 22.0258 19.2694 22.4999 18.1213 22.4999Z" fill="black"/>
</svg>
