<svg width="43" height="45" viewBox="0 0 43 45" fill="none" xmlns="http://www.w3.org/2000/svg">
<path fill-rule="evenodd" clip-rule="evenodd" d="M35.2918 40.5H8.01988C6.55203 40.5 5.4681 38.9317 6.02173 37.4894C8.59047 30.8204 14.6252 27 21.6548 27C28.6865 27 34.7212 30.8204 37.29 37.4894C37.8436 38.9317 36.7597 40.5 35.2918 40.5ZM13.1701 13.5C13.1701 8.53647 16.9776 4.49997 21.6548 4.49997C26.3341 4.49997 30.1395 8.53647 30.1395 13.5C30.1395 18.4635 26.3341 22.5 21.6548 22.5C16.9776 22.5 13.1701 18.4635 13.1701 13.5ZM42.3426 39.6809C40.8005 32.1232 35.977 26.5454 29.6283 24.0142C32.9925 21.1409 34.9545 16.4946 34.2334 11.4073C33.3976 5.5056 28.7692 0.782948 23.182 0.0944479C15.4695 -0.857302 8.92773 5.51022 8.92773 13.5C8.92773 17.7525 10.7859 21.5414 13.6834 24.0142C7.33262 26.5454 2.51118 32.1232 0.966968 39.6809C0.406978 42.4282 2.49422 45 5.14356 45H38.166C40.8175 45 42.9047 42.4282 42.3426 39.6809Z" fill="black"/>
</svg>
