<svg width="240" height="40" viewBox="0 0 240 40" fill="none" xmlns="http://www.w3.org/2000/svg">
<path d="M230.813 39.9937C230.398 39.9937 229.981 39.8912 229.602 39.6812L219.999 34.37L210.395 39.6812C209.555 40.145 208.524 40.0887 207.743 39.5375C206.962 38.9856 206.561 38.0356 206.715 37.0906L208.578 25.6775L200.711 17.61C200.056 16.9387 199.832 15.9594 200.129 15.0706C200.428 14.1819 201.196 13.535 202.122 13.3931L212.895 11.7475L217.734 1.43812C218.148 0.55875 219.029 0 219.998 0C220.968 0 221.849 0.559375 222.262 1.43812L227.101 11.7475L237.874 13.3931C238.799 13.535 239.569 14.1819 239.867 15.0706C240.165 15.96 239.94 16.9387 239.286 17.61L231.419 25.6775L233.281 37.0906C233.435 38.0356 233.034 38.9856 232.253 39.5375C231.824 39.84 231.318 39.9937 230.813 39.9937ZM219.998 29.0131C220.416 29.0131 220.831 29.1181 221.209 29.3256L227.517 32.8125L226.279 25.2381C226.153 24.4544 226.404 23.6587 226.958 23.0894L232.31 17.6025L225.026 16.4894C224.204 16.365 223.496 15.8375 223.141 15.08L219.999 8.385L216.856 15.08C216.502 15.8375 215.794 16.365 214.971 16.4894L207.687 17.6025L213.039 23.0894C213.593 23.6581 213.844 24.4544 213.718 25.2381L212.48 32.8125L218.788 29.3256C219.166 29.1181 219.581 29.0131 219.998 29.0131Z" fill="#394240"/>
<path d="M219.998 29.0129C220.416 29.0129 220.831 29.1179 221.21 29.3254L227.517 32.8123L226.28 25.2379C226.153 24.4541 226.404 23.6585 226.958 23.0891L232.31 17.6023L225.026 16.4891C224.204 16.3648 223.496 15.8373 223.141 15.0798L219.999 8.38477L216.856 15.0798C216.502 15.8373 215.794 16.3648 214.971 16.4891L207.687 17.6023L213.039 23.0891C213.593 23.6579 213.845 24.4541 213.718 25.2379L212.48 32.8123L218.788 29.3254C219.166 29.1179 219.581 29.0129 219.998 29.0129Z" fill="#F9EBB2"/>
<path d="M180.813 39.9937C180.398 39.9937 179.981 39.8912 179.602 39.6812L169.999 34.37L160.395 39.6812C159.555 40.145 158.524 40.0887 157.743 39.5375C156.962 38.9856 156.561 38.0356 156.715 37.0906L158.578 25.6775L150.711 17.61C150.056 16.9387 149.832 15.9594 150.129 15.0706C150.428 14.1819 151.196 13.535 152.122 13.3931L162.895 11.7475L167.734 1.43812C168.148 0.55875 169.029 0 169.998 0C170.968 0 171.849 0.559375 172.262 1.43812L177.101 11.7475L187.874 13.3931C188.799 13.535 189.569 14.1819 189.867 15.0706C190.165 15.96 189.94 16.9387 189.286 17.61L181.419 25.6775L183.281 37.0906C183.435 38.0356 183.034 38.9856 182.253 39.5375C181.824 39.84 181.318 39.9937 180.813 39.9937ZM169.998 29.0131C170.416 29.0131 170.831 29.1181 171.209 29.3256L177.517 32.8125L176.279 25.2381C176.153 24.4544 176.404 23.6587 176.958 23.0894L182.31 17.6025L175.026 16.4894C174.204 16.365 173.496 15.8375 173.141 15.08L169.999 8.385L166.856 15.08C166.502 15.8375 165.794 16.365 164.971 16.4894L157.687 17.6025L163.039 23.0894C163.593 23.6581 163.844 24.4544 163.718 25.2381L162.48 32.8125L168.788 29.3256C169.166 29.1181 169.581 29.0131 169.998 29.0131Z" fill="#394240"/>
<path d="M169.998 29.0129C170.416 29.0129 170.831 29.1179 171.21 29.3254L177.517 32.8123L176.28 25.2379C176.153 24.4541 176.404 23.6585 176.958 23.0891L182.31 17.6023L175.026 16.4891C174.204 16.3648 173.496 15.8373 173.141 15.0798L169.999 8.38477L166.856 15.0798C166.502 15.8373 165.794 16.3648 164.971 16.4891L157.687 17.6023L163.039 23.0891C163.593 23.6579 163.845 24.4541 163.718 25.2379L162.48 32.8123L168.788 29.3254C169.166 29.1179 169.581 29.0129 169.998 29.0129Z" fill="#F9EBB2"/>
<path d="M130.813 39.9937C130.398 39.9937 129.981 39.8912 129.602 39.6812L119.999 34.37L110.395 39.6812C109.555 40.145 108.524 40.0887 107.743 39.5375C106.962 38.9856 106.561 38.0356 106.715 37.0906L108.578 25.6775L100.711 17.61C100.056 16.9387 99.8319 15.9594 100.129 15.0706C100.428 14.1819 101.196 13.535 102.122 13.3931L112.895 11.7475L117.734 1.43812C118.148 0.55875 119.029 0 119.998 0C120.968 0 121.849 0.559375 122.262 1.43812L127.101 11.7475L137.874 13.3931C138.799 13.535 139.569 14.1819 139.867 15.0706C140.165 15.96 139.94 16.9387 139.286 17.61L131.419 25.6775L133.281 37.0906C133.435 38.0356 133.034 38.9856 132.253 39.5375C131.824 39.84 131.318 39.9937 130.813 39.9937ZM119.998 29.0131C120.416 29.0131 120.831 29.1181 121.209 29.3256L127.517 32.8125L126.279 25.2381C126.153 24.4544 126.404 23.6587 126.958 23.0894L132.31 17.6025L125.026 16.4894C124.204 16.365 123.496 15.8375 123.141 15.08L119.999 8.385L116.856 15.08C116.502 15.8375 115.794 16.365 114.971 16.4894L107.687 17.6025L113.039 23.0894C113.593 23.6581 113.844 24.4544 113.718 25.2381L112.48 32.8125L118.788 29.3256C119.166 29.1181 119.581 29.0131 119.998 29.0131Z" fill="#394240"/>
<path d="M119.998 29.0129C120.416 29.0129 120.831 29.1179 121.21 29.3254L127.517 32.8123L126.28 25.2379C126.153 24.4541 126.404 23.6585 126.958 23.0891L132.31 17.6023L125.026 16.4891C124.204 16.3648 123.496 15.8373 123.141 15.0798L119.999 8.38477L116.856 15.0798C116.502 15.8373 115.794 16.3648 114.971 16.4891L107.687 17.6023L113.039 23.0891C113.593 23.6579 113.845 24.4541 113.718 25.2379L112.48 32.8123L118.788 29.3254C119.166 29.1179 119.581 29.0129 119.998 29.0129Z" fill="#F9EBB2"/>
<path d="M80.8132 39.9937C80.3982 39.9937 79.9807 39.8912 79.6019 39.6812L69.9988 34.37L60.395 39.6812C59.555 40.145 58.5244 40.0887 57.7432 39.5375C56.9619 38.9856 56.5613 38.0356 56.715 37.0906L58.5782 25.6775L50.7107 17.61C50.0563 16.9387 49.8319 15.9594 50.1294 15.0706C50.4275 14.1819 51.1963 13.535 52.1219 13.3931L62.895 11.7475L67.7344 1.43812C68.1475 0.55875 69.0288 0 69.9982 0C70.9675 0 71.8488 0.559375 72.2619 1.43812L77.1013 11.7475L87.8744 13.3931C88.7994 13.535 89.5688 14.1819 89.8669 15.0706C90.165 15.96 89.94 16.9387 89.2857 17.61L81.4188 25.6775L83.2813 37.0906C83.435 38.0356 83.0344 38.9856 82.2532 39.5375C81.8238 39.84 81.3182 39.9937 80.8132 39.9937ZM69.9982 29.0131C70.4157 29.0131 70.8307 29.1181 71.2094 29.3256L77.5169 32.8125L76.2794 25.2381C76.1525 24.4544 76.4038 23.6587 76.9582 23.0894L82.31 17.6025L75.0263 16.4894C74.2038 16.365 73.4957 15.8375 73.1413 15.08L69.9988 8.385L66.8557 15.08C66.5019 15.8375 65.7938 16.365 64.9707 16.4894L57.6869 17.6025L63.0388 23.0894C63.5932 23.6581 63.8444 24.4544 63.7175 25.2381L62.48 32.8125L68.7875 29.3256C69.1657 29.1181 69.5807 29.0131 69.9982 29.0131Z" fill="#394240"/>
<path d="M69.9983 29.0129C70.4158 29.0129 70.8308 29.1179 71.2095 29.3254L77.517 32.8123L76.2795 25.2379C76.1526 24.4541 76.4039 23.6585 76.9583 23.0891L82.3101 17.6023L75.0264 16.4891C74.2039 16.3648 73.4958 15.8373 73.1414 15.0798L69.9989 8.38477L66.8558 15.0798C66.502 15.8373 65.7939 16.3648 64.9708 16.4891L57.687 17.6023L63.0389 23.0891C63.5933 23.6579 63.8445 24.4541 63.7176 25.2379L62.4801 32.8123L68.7876 29.3254C69.1658 29.1179 69.5808 29.0129 69.9983 29.0129Z" fill="#F9EBB2"/>
<path d="M30.8136 39.9996C30.3986 39.9996 29.9811 39.8971 29.6024 39.6871L19.9993 34.3759L10.3955 39.6871C9.55552 40.1509 8.52489 40.0946 7.74364 39.5434C6.96239 38.9915 6.56177 38.0415 6.71552 37.0965L8.57864 25.6834L0.711145 17.6159C0.0567697 16.9446 -0.167605 15.9652 0.129895 15.0765C0.42802 14.1877 1.19677 13.5409 2.12239 13.399L12.8955 11.7534L17.7349 1.44398C18.148 0.564609 19.0293 0.00585938 19.9986 0.00585938C20.968 0.00585938 21.8493 0.565234 22.2624 1.44398L27.1018 11.7534L37.8749 13.399C38.7999 13.5409 39.5693 14.1877 39.8674 15.0765C40.1655 15.9659 39.9405 16.9446 39.2861 17.6159L31.4193 25.6834L33.2818 37.0965C33.4355 38.0415 33.0349 38.9915 32.2536 39.5434C31.8243 39.8459 31.3186 39.9996 30.8136 39.9996ZM19.9986 29.019C20.4161 29.019 20.8311 29.124 21.2099 29.3315L27.5174 32.8184L26.2799 25.244C26.153 24.4602 26.4043 23.6646 26.9586 23.0952L32.3105 17.6084L25.0268 16.4952C24.2043 16.3709 23.4961 15.8434 23.1418 15.0859L19.9993 8.39086L16.8561 15.0859C16.5024 15.8434 15.7943 16.3709 14.9711 16.4952L7.68739 17.6084L13.0393 23.0952C13.5936 23.664 13.8449 24.4602 13.718 25.244L12.4805 32.8184L18.788 29.3315C19.1661 29.124 19.5811 29.019 19.9986 29.019Z" fill="#394240"/>
<path d="M19.9987 29.0188C20.4162 29.0188 20.8313 29.1238 21.21 29.3313L27.5175 32.8181L26.28 25.2438C26.1531 24.46 26.4044 23.6644 26.9587 23.095L32.3106 17.6081L25.0269 16.495C24.2044 16.3706 23.4963 15.8431 23.1419 15.0856L19.9994 8.39062L16.8562 15.0856C16.5025 15.8431 15.7944 16.3706 14.9713 16.495L7.6875 17.6081L13.0394 23.095C13.5938 23.6638 13.845 24.46 13.7181 25.2438L12.4806 32.8181L18.7881 29.3313C19.1663 29.1238 19.5812 29.0188 19.9987 29.0188Z" fill="#F9EBB2"/>
</svg>
