<svg width="162" height="162" viewBox="0 0 162 162" fill="none" xmlns="http://www.w3.org/2000/svg">
<path d="M81.8795 88.1572C93.287 88.1572 102.535 78.9097 102.535 67.5022C102.535 56.0947 93.287 46.8472 81.8795 46.8472C70.472 46.8472 61.2246 56.0947 61.2246 67.5022C61.2246 78.9097 70.472 88.1572 81.8795 88.1572Z" stroke="#B008DA" stroke-width="10" stroke-linecap="round" stroke-linejoin="round"/>
<path d="M114.75 20.25H47.25C32.3383 20.25 20.25 32.3383 20.25 47.25V114.75C20.25 129.661 32.3383 141.75 47.25 141.75H114.75C129.661 141.75 141.75 129.661 141.75 114.75V47.25C141.75 32.3383 129.661 20.25 114.75 20.25Z" stroke="#B008DA" stroke-width="10" stroke-linecap="round" stroke-linejoin="round"/>
<path d="M42.5904 138.51C42.3733 133.336 43.2053 128.17 45.0359 123.325C46.8665 118.48 49.658 114.056 53.2427 110.317C56.8274 106.579 61.1313 103.605 65.8952 101.572C70.659 99.5403 75.7849 98.4934 80.9642 98.4934C86.1435 98.4934 91.2694 99.5403 96.0336 101.572C100.797 103.605 105.101 106.579 108.686 110.317C112.27 114.056 115.062 118.48 116.892 123.325C118.723 128.17 119.555 133.336 119.338 138.51" stroke="#B008DA" stroke-width="10" stroke-linecap="round" stroke-linejoin="round"/>
</svg>
