<svg width="47" height="45" viewBox="0 0 47 45" fill="none" xmlns="http://www.w3.org/2000/svg">
<mask id="path-1-inside-1_81_327" fill="white">
<path fill-rule="evenodd" clip-rule="evenodd" d="M39.8217 6.5625C35.519 2.34375 29.6864 0 23.567 0C10.9648 0 0.619141 10.1437 0.619141 22.5C0.619141 26.4562 1.86215 30.2063 3.87009 33.6L0.619141 45L12.7241 42.0938C16.0707 43.8938 19.7423 45 23.567 45C36.1692 45 46.5148 34.8563 46.5148 22.5C46.5148 16.5187 44.1436 10.8 39.8217 6.5625ZM23.567 41.25C20.1631 41.25 16.9121 40.1438 13.9863 38.4563L13.2978 38.0438L6.1075 39.9L8.01982 33.0188L7.56086 32.3062C5.66767 29.3437 4.44378 26.025 4.44378 22.5C4.44378 12.225 13.0875 3.75 23.567 3.75C28.6346 3.75 33.5111 5.71875 37.1062 9.24375C40.7014 12.7687 42.6902 17.5312 42.6902 22.5C42.6902 32.775 34.0274 41.25 23.567 41.25ZM34.0847 27.0937C33.5111 26.8125 30.6999 25.4625 30.1836 25.275C29.6673 25.0875 29.2848 24.9938 28.9024 25.5563C28.5199 26.1188 27.4299 27.375 27.0857 27.75C26.7606 28.125 26.4163 28.1625 25.8426 27.8812C25.269 27.6 23.4331 27.0188 21.2531 25.1063C19.5511 23.625 18.4037 21.7875 18.0786 21.225C17.7535 20.6625 18.0404 20.3625 18.3272 20.0813C18.5758 19.8375 18.9009 19.425 19.1878 19.1062C19.4746 18.7875 19.5702 18.5437 19.7615 18.1687C19.9527 17.7937 19.8571 17.475 19.7232 17.1938C19.5702 16.9125 18.4228 14.1562 17.9448 13.0312C17.4858 11.9437 17.0077 12.0938 16.6635 12.075C16.3384 12.0563 15.956 12.0562 15.5735 12.0562C15.191 12.0562 14.5791 12.2063 14.0436 12.75C13.5273 13.3125 12.0548 14.6813 12.0548 17.4375C12.0548 20.1938 14.101 22.8563 14.3878 23.2313C14.6747 23.6063 18.4228 29.2687 24.1407 31.6875C25.4984 32.2687 26.5693 32.6063 27.3916 32.8688C28.7685 33.3 30.0115 33.2437 30.9868 33.0937C32.0768 32.925 34.3716 31.7437 34.8497 30.4312C35.3278 29.1187 35.3278 27.9938 35.1748 27.7688C35.0409 27.525 34.6584 27.375 34.0847 27.0937Z"/>
</mask>
<path fill-rule="evenodd" clip-rule="evenodd" d="M39.8217 6.5625C35.519 2.34375 29.6864 0 23.567 0C10.9648 0 0.619141 10.1437 0.619141 22.5C0.619141 26.4562 1.86215 30.2063 3.87009 33.6L0.619141 45L12.7241 42.0938C16.0707 43.8938 19.7423 45 23.567 45C36.1692 45 46.5148 34.8563 46.5148 22.5C46.5148 16.5187 44.1436 10.8 39.8217 6.5625ZM23.567 41.25C20.1631 41.25 16.9121 40.1438 13.9863 38.4563L13.2978 38.0438L6.1075 39.9L8.01982 33.0188L7.56086 32.3062C5.66767 29.3437 4.44378 26.025 4.44378 22.5C4.44378 12.225 13.0875 3.75 23.567 3.75C28.6346 3.75 33.5111 5.71875 37.1062 9.24375C40.7014 12.7687 42.6902 17.5312 42.6902 22.5C42.6902 32.775 34.0274 41.25 23.567 41.25ZM34.0847 27.0937C33.5111 26.8125 30.6999 25.4625 30.1836 25.275C29.6673 25.0875 29.2848 24.9938 28.9024 25.5563C28.5199 26.1188 27.4299 27.375 27.0857 27.75C26.7606 28.125 26.4163 28.1625 25.8426 27.8812C25.269 27.6 23.4331 27.0188 21.2531 25.1063C19.5511 23.625 18.4037 21.7875 18.0786 21.225C17.7535 20.6625 18.0404 20.3625 18.3272 20.0813C18.5758 19.8375 18.9009 19.425 19.1878 19.1062C19.4746 18.7875 19.5702 18.5437 19.7615 18.1687C19.9527 17.7937 19.8571 17.475 19.7232 17.1938C19.5702 16.9125 18.4228 14.1562 17.9448 13.0312C17.4858 11.9437 17.0077 12.0938 16.6635 12.075C16.3384 12.0563 15.956 12.0562 15.5735 12.0562C15.191 12.0562 14.5791 12.2063 14.0436 12.75C13.5273 13.3125 12.0548 14.6813 12.0548 17.4375C12.0548 20.1938 14.101 22.8563 14.3878 23.2313C14.6747 23.6063 18.4228 29.2687 24.1407 31.6875C25.4984 32.2687 26.5693 32.6063 27.3916 32.8688C28.7685 33.3 30.0115 33.2437 30.9868 33.0937C32.0768 32.925 34.3716 31.7437 34.8497 30.4312C35.3278 29.1187 35.3278 27.9938 35.1748 27.7688C35.0409 27.525 34.6584 27.375 34.0847 27.0937Z" fill="black"/>
<path d="M3.87009 33.6L35.9255 42.7413L39.8555 28.96L32.5582 16.6265L3.87009 33.6ZM0.619141 45L-31.4363 35.8587L-47.085 90.7337L8.4009 77.4123L0.619141 45ZM12.7241 42.0938L28.5139 12.7374L17.3112 6.71188L4.94237 9.68148L12.7241 42.0938ZM13.9863 38.4563L-3.14643 67.0496L-2.90815 67.1924L-2.66752 67.3312L13.9863 38.4563ZM13.2978 38.0438L30.4305 9.45036L18.4683 2.28277L4.96569 5.76858L13.2978 38.0438ZM6.1075 39.9L-26.0087 30.9748L-41.4695 86.6086L14.4396 72.1752L6.1075 39.9ZM8.01982 33.0188L40.136 41.9439L44.1395 27.5379L36.0426 14.9679L8.01982 33.0188ZM7.56086 32.3062L-20.5269 50.2558L-20.4945 50.3065L-20.462 50.3571L7.56086 32.3062ZM27.0857 27.75L2.52911 5.20921L2.20913 5.55781L1.89916 5.91536L27.0857 27.75ZM21.2531 25.1063L43.2355 0.0486373L43.1861 0.00527203L43.1365 -0.0378979L21.2531 25.1063ZM19.7232 17.1938L49.8213 2.8684L49.4347 2.05619L49.0049 1.266L19.7232 17.1938ZM17.9448 13.0312L-12.7657 25.992L-12.7496 26.0301L-12.7334 26.0682L17.9448 13.0312ZM16.6635 12.075L14.7442 45.353L14.7973 45.3561L14.8505 45.359L16.6635 12.075ZM14.0436 12.75L-9.70717 -10.6383L-10.1175 -10.2216L-10.5129 -9.79079L14.0436 12.75ZM24.1407 31.6875L37.2591 1.04409L37.1932 1.01588L37.1272 0.987946L24.1407 31.6875ZM27.3916 32.8688L17.2547 64.6233L17.3415 64.6511L17.4285 64.6783L27.3916 32.8688ZM30.9868 33.0937L36.0539 66.0397L36.0702 66.0372L36.0865 66.0347L30.9868 33.0937ZM35.1748 27.7688L5.95746 43.8143L6.71955 45.202L7.60974 46.5112L35.1748 27.7688ZM63.1585 -17.2388C52.4716 -27.7172 38.1967 -33.3333 23.567 -33.3333V33.3333C21.1761 33.3333 18.5663 32.4047 16.4849 30.3638L63.1585 -17.2388ZM23.567 -33.3333C-6.82231 -33.3333 -32.7142 -8.88203 -32.7142 22.5H33.9525C33.9525 29.1695 28.7519 33.3333 23.567 33.3333V-33.3333ZM-32.7142 22.5C-32.7142 33.5995 -29.2091 43.1519 -24.8181 50.5735L32.5582 16.6265C32.9334 17.2606 33.9525 19.313 33.9525 22.5H-32.7142ZM-28.1853 24.4587L-31.4363 35.8587L32.6745 54.1413L35.9255 42.7413L-28.1853 24.4587ZM8.4009 77.4123L20.5059 74.506L4.94237 9.68148L-7.16262 12.5877L8.4009 77.4123ZM-3.06563 71.4501C4.16506 75.3392 13.2265 78.3333 23.567 78.3333V11.6667C26.2582 11.6667 27.9763 12.4483 28.5139 12.7374L-3.06563 71.4501ZM23.567 78.3333C53.9563 78.3333 79.8482 53.882 79.8482 22.5H13.1815C13.1815 15.8305 18.3821 11.6667 23.567 11.6667V78.3333ZM79.8482 22.5C79.8482 7.62343 73.9163 -6.69104 63.1585 -17.2388L16.4849 30.3638C14.3708 28.291 13.1815 25.4141 13.1815 22.5H79.8482ZM23.567 7.91667C27.4533 7.91667 29.9195 9.16574 30.64 9.5813L-2.66752 67.3312C3.9047 71.1218 12.8728 74.5833 23.567 74.5833V7.91667ZM31.1189 9.86286L30.4305 9.45036L-3.83486 66.6371L-3.14643 67.0496L31.1189 9.86286ZM4.96569 5.76858L-2.22464 7.62483L14.4396 72.1752L21.63 70.3189L4.96569 5.76858ZM38.2237 48.8252L40.136 41.9439L-24.0964 24.0936L-26.0087 30.9748L38.2237 48.8252ZM36.0426 14.9679L35.5837 14.2554L-20.462 50.3571L-20.003 51.0696L36.0426 14.9679ZM35.6486 14.3566C36.2535 15.3031 37.7771 18.1368 37.7771 22.5H-28.8896C-28.8896 33.9132 -24.9181 43.3844 -20.5269 50.2558L35.6486 14.3566ZM37.7771 22.5C37.7771 31.2508 30.8746 37.0833 23.567 37.0833V-29.5833C-4.69963 -29.5833 -28.8896 -6.80078 -28.8896 22.5H37.7771ZM23.567 37.0833C20.0412 37.0833 16.5001 35.7225 13.7694 33.0451L60.443 -14.5576C50.522 -24.285 37.228 -29.5833 23.567 -29.5833V37.0833ZM13.7694 33.0451C10.9788 30.3089 9.35686 26.4969 9.35686 22.5H76.0235C76.0235 8.56556 70.424 -4.77144 60.443 -14.5576L13.7694 33.0451ZM9.35686 22.5C9.35686 13.7278 16.2621 7.91667 23.567 7.91667V74.5833C51.7926 74.5833 76.0235 51.8222 76.0235 22.5H9.35686ZM48.7578 -2.8364C48.2851 -3.0681 47.2851 -3.54917 46.3428 -3.994C45.8648 -4.21967 45.2961 -4.48595 44.7568 -4.73176C44.4926 -4.8522 44.1446 -5.00926 43.7701 -5.17215C43.5989 -5.2466 42.678 -5.65091 41.5614 -6.05642L18.8059 56.6064C18.4718 56.4851 18.203 56.3811 18.0285 56.3124C17.8461 56.2406 17.697 56.1799 17.5922 56.1366C17.3891 56.0528 17.2429 55.9896 17.1818 55.963C17.0621 55.911 17.0229 55.8923 17.1038 55.9292C17.1689 55.9589 17.2718 56.0063 17.4144 56.0727C17.5539 56.1377 17.7118 56.2118 17.8825 56.2924C18.226 56.4546 18.5825 56.6246 18.8851 56.7698C19.0351 56.8418 19.1642 56.904 19.2643 56.9524C19.3741 57.0055 19.4189 57.0274 19.4117 57.0239L48.7578 -2.8364ZM41.5614 -6.05642C41.2728 -6.1612 39.5335 -6.80776 37.3033 -7.32159C34.9606 -7.86136 30.848 -8.56272 25.7597 -7.98926C13.1331 -6.56623 5.2137 1.1127 1.33733 6.81379L56.4674 44.2987C54.9326 46.556 52.2897 49.8105 48.1154 52.6893C43.6363 55.7782 38.5055 57.663 33.2258 58.258C28.3455 58.808 24.4493 58.1301 22.3354 57.6431C20.3342 57.182 18.8362 56.6174 18.8059 56.6064L41.5614 -6.05642ZM1.33733 6.81379C1.70043 6.27976 1.99006 5.89169 2.11859 5.72133C2.26749 5.52395 2.37613 5.38648 2.42425 5.32603C2.5155 5.21137 2.54252 5.18115 2.48795 5.24592C2.44437 5.29765 2.39271 5.35773 2.35331 5.40285C2.33528 5.4235 2.33291 5.42602 2.3477 5.4094C2.35294 5.40352 2.41919 5.32897 2.52911 5.20921L51.6422 50.2908C51.979 49.9239 54.5749 47.0821 56.4674 44.2987L1.33733 6.81379ZM1.89916 5.91536C5.37092 1.91066 12.3488 -3.94886 23.0333 -5.08481C32.0932 -6.04802 38.697 -2.94049 40.5157 -2.0489L11.1696 57.8114C13.562 58.9842 20.6247 62.2136 30.0814 61.2082C41.1628 60.0301 48.4753 53.9643 52.2722 49.5846L1.89916 5.91536ZM40.5157 -2.0489C39.9565 -2.323 39.4941 -2.53114 39.2332 -2.64685C38.9611 -2.76753 38.7327 -2.86497 38.6241 -2.91122C38.5632 -2.93714 38.5082 -2.96041 38.4748 -2.97456C38.432 -2.99268 38.42 -2.99774 38.3988 -3.00672C38.3669 -3.02023 38.3794 -3.015 38.41 -3.00182C38.5723 -2.93166 39.0184 -2.73504 39.5831 -2.44006C40.7696 -1.82029 42.0418 -0.998557 43.2355 0.0486373L-0.729347 50.1639C2.64439 53.1236 5.92453 55.1922 8.7174 56.651C10.0853 57.3655 11.2341 57.8797 11.9702 58.1977C12.2056 58.2994 12.6642 58.4936 12.5162 58.4306C12.5092 58.4276 12.4772 58.414 12.4302 58.3937C12.3834 58.3735 12.3061 58.3399 12.2078 58.2963C12.0379 58.221 11.657 58.0503 11.1696 57.8114L40.5157 -2.0489ZM43.1365 -0.0378979C44.5197 1.16595 45.3518 2.20619 45.7428 2.72367C46.1696 3.28834 46.5454 3.86496 46.9387 4.54545L-10.7814 37.9046C-9.68501 39.8017 -6.36119 45.2627 -0.630313 50.2504L43.1365 -0.0378979ZM46.9387 4.54545C48.5376 7.31194 50.332 11.3897 51.0015 16.6004C51.705 22.0753 50.9828 27.4033 49.2266 32.1387C47.5866 36.5608 45.3509 39.6476 43.9883 41.3239C43.286 42.1881 42.6767 42.8445 42.3032 43.2348C42.1101 43.4365 41.9509 43.5974 41.8475 43.7008C41.7474 43.8009 41.6724 43.8744 41.6641 43.8826L-5.0096 -3.72008C-5.02595 -3.70405 -6.35308 -2.43743 -7.74504 -0.724888C-9.23186 1.10438 -11.5727 4.35408 -13.2797 8.95665C-17.5052 20.3501 -14.7985 30.954 -10.7814 37.9046L46.9387 4.54545ZM41.6641 43.8826C42.4291 43.1325 43.019 42.486 43.3371 42.1314C43.6768 41.7529 43.9546 41.4286 44.0846 41.2765C44.1544 41.1948 44.2214 41.116 44.2504 41.0818C44.2902 41.035 44.296 41.0283 44.2948 41.0296C44.2913 41.0337 44.2591 41.0714 44.209 41.1289C44.159 41.1862 44.075 41.282 43.9653 41.4039L-5.58974 -3.19142C-5.77112 -2.98986 -5.9281 -2.81143 -6.05172 -2.66957C-6.1755 -2.52752 -6.28213 -2.40342 -6.3603 -2.31206C-6.43614 -2.22342 -6.50538 -2.14197 -6.54047 -2.1007C-6.56202 -2.07534 -6.57355 -2.06178 -6.58493 -2.04841C-6.59516 -2.0364 -6.59867 -2.03229 -6.5983 -2.03272C-6.59777 -2.03334 -6.59066 -2.04166 -6.57874 -2.05552C-6.56678 -2.06941 -6.54782 -2.09139 -6.52324 -2.11967C-6.47646 -2.17347 -6.39375 -2.26804 -6.28466 -2.38962C-6.17683 -2.50981 -6.0187 -2.68378 -5.82054 -2.89379C-5.62537 -3.10064 -5.35051 -3.38582 -5.0096 -3.72008L41.6641 43.8826ZM43.9653 41.4039C45.8999 39.2542 47.3731 37.101 48.5119 35.0912C48.9806 34.264 49.3222 33.5825 49.4376 33.352C49.6741 32.8795 49.4646 33.2961 49.4566 33.3118L-9.93362 3.02568C-10.0372 3.22885 -10.3305 3.81657 -10.1746 3.50526C-10.1399 3.43585 -9.87596 2.90555 -9.49092 2.226C-9.07002 1.48316 -8.51001 0.567992 -7.79392 -0.439035C-7.07753 -1.44649 -6.33459 -2.36372 -5.58974 -3.19142L43.9653 41.4039ZM49.4566 33.3118C56.6646 19.1771 51.631 6.67057 49.8213 2.8684L-10.3749 31.5191C-10.9665 30.2761 -12.7378 26.4331 -13.2921 21.0768C-13.9169 15.0382 -12.8469 8.73843 -9.93362 3.02568L49.4566 33.3118ZM49.0049 1.266C49.1568 1.54529 49.2796 1.78073 49.3667 1.9502C49.4561 2.12443 49.5309 2.27379 49.5878 2.38903C49.6988 2.6135 49.7845 2.79371 49.8359 2.90283C49.9367 3.11664 50.0062 3.27113 50.0272 3.3177C50.0723 3.41811 50.0829 3.44404 50.0395 3.34378C49.9605 3.1612 49.8321 2.86008 49.6569 2.44586C49.4876 2.04539 49.307 1.61622 49.1259 1.186C48.9557 0.781475 48.7697 0.339773 48.6229 -0.00573423L-12.7334 26.0682C-12.4809 26.6624 -12.2137 27.3039 -11.7451 28.412C-11.5545 28.8626 -11.3375 29.3736 -11.1434 29.822C-11.0503 30.0373 -10.9212 30.3335 -10.7822 30.6429C-10.7143 30.7939 -10.604 31.0376 -10.4694 31.3232C-10.4062 31.4572 -10.0533 32.2118 -9.55848 33.1215L49.0049 1.266ZM48.6552 0.0705427C46.8341 -4.24461 42.0794 -13.141 31.148 -18.1506C26.0043 -20.5077 21.4302 -21.0564 18.7897 -21.2028C18.1614 -21.2377 17.6411 -21.2492 17.2907 -21.2537C16.9617 -21.2578 16.6904 -21.2563 16.6685 -21.2562C16.3273 -21.2549 17.3468 -21.2705 18.4765 -21.209L14.8505 45.359C16.0663 45.4252 17.176 45.409 16.9287 45.4099C16.9284 45.4099 16.9249 45.41 16.9196 45.41C16.9142 45.41 16.9059 45.41 16.8956 45.41C16.8753 45.4101 16.8434 45.4101 16.8038 45.4101C16.7257 45.41 16.6023 45.4096 16.4498 45.4077C16.148 45.4039 15.6772 45.3937 15.0991 45.3616C12.6594 45.2263 8.29796 44.7116 3.37423 42.4552C-7.11733 37.6473 -11.4035 29.2196 -12.7657 25.992L48.6552 0.0705427ZM18.5828 -21.203C17.1042 -21.2883 15.6822 -21.2771 15.5735 -21.2771V45.3896C15.6781 45.3896 15.7219 45.3896 15.7563 45.3897C15.7861 45.3898 15.7658 45.3899 15.7156 45.3892C15.6656 45.3886 15.5568 45.3869 15.4064 45.3824C15.2578 45.3779 15.0302 45.3695 14.7442 45.353L18.5828 -21.203ZM15.5735 -21.2771C7.31236 -21.2771 -2.20568 -18.256 -9.70717 -10.6383L37.7944 36.1383C31.3638 42.6685 23.0697 45.3896 15.5735 45.3896V-21.2771ZM-10.5129 -9.79079C-9.75838 -10.6128 -13.3657 -7.02639 -16.0846 -2.26898C-19.1167 3.03622 -21.2785 9.71934 -21.2785 17.4375H45.3881C45.3881 22.3994 43.9626 27.02 41.7958 30.8112C39.9422 34.0545 37.3293 36.6753 38.6002 35.2908L-10.5129 -9.79079ZM-21.2785 17.4375C-21.2785 26.4642 -18.1383 33.3653 -16.4859 36.556C-14.5832 40.2302 -12.5922 42.8241 -12.0879 43.4833L40.8636 2.9792C40.849 2.96014 40.9707 3.11866 41.1138 3.31427C41.2516 3.5028 41.4048 3.71902 41.5671 3.96047C41.8736 4.41654 42.2811 5.06384 42.7135 5.89864C43.1308 6.70447 43.7332 7.99515 44.2599 9.72042C44.7785 11.4191 45.3881 14.0746 45.3881 17.4375H-21.2785ZM-12.0879 43.4833C-13.1261 42.1261 -10.2338 46.206 -6.86374 49.7302C-3.53622 53.21 2.48968 58.7218 11.1542 62.3871L37.1272 0.987946C38.7433 1.67162 39.8077 2.40101 40.346 2.80797C40.8981 3.22532 41.2086 3.54016 41.319 3.65569C41.4448 3.78718 41.5255 3.88648 41.5862 3.96497C41.6245 4.0144 41.659 4.06117 41.6805 4.09104C41.6849 4.09717 41.6894 4.1035 41.6379 4.03112C41.6254 4.01357 41.5552 3.91486 41.48 3.81034C41.45 3.76871 41.1925 3.40913 40.8636 2.9792L-12.0879 43.4833ZM11.0223 62.3309C13.9736 63.5944 16.3759 64.3428 17.2547 64.6233L37.5286 1.11417C37.5003 1.10514 37.4718 1.09605 37.4466 1.08802C37.4205 1.07969 37.3969 1.07215 37.3737 1.06475C37.3274 1.04996 37.2884 1.0375 37.2526 1.02601C37.1812 1.00309 37.1322 0.987225 37.0947 0.974972C37.0229 0.951477 37.0058 0.945236 37.0182 0.949597C37.0323 0.95456 37.0673 0.967105 37.1153 0.985629C37.1633 1.00415 37.2123 1.02405 37.2591 1.04409L11.0223 62.3309ZM17.4285 64.6783C25.2756 67.1361 32.038 66.6574 36.0539 66.0397L25.9197 0.147806C27.985 -0.169855 32.2614 -0.536096 37.3547 1.05919L17.4285 64.6783ZM36.0865 66.0347C42.5319 65.0368 47.6766 62.4166 50.7985 60.4679C52.9699 59.1125 61.9358 53.4638 66.1699 41.8397L3.52942 19.0228C5.67149 13.1421 8.98325 9.44314 10.6847 7.74994C12.5836 5.86017 14.3368 4.63908 15.4969 3.91491C16.7182 3.15257 17.9714 2.5127 19.2772 1.97435C20.3262 1.54184 22.6487 0.65417 25.8871 0.15283L36.0865 66.0347ZM66.1699 41.8397C67.4144 38.4231 68.1688 34.936 68.4601 31.5428C68.6019 29.8909 68.6844 27.6833 68.4575 25.1369C68.3454 23.8781 68.1125 22.0107 67.5634 19.8134C67.1369 18.1063 65.9406 13.7338 62.7398 9.02629L7.60974 46.5112C4.44719 41.86 3.28439 37.5718 2.88526 35.9745C2.36362 33.8868 2.15206 32.1546 2.05394 31.0534C1.85514 28.8221 1.93651 27.02 2.03766 25.8415C2.24763 23.3952 2.76299 21.1269 3.52942 19.0228L66.1699 41.8397ZM64.3921 11.7232C61.8025 7.00774 58.6073 3.8478 56.2961 1.93273C54.0643 0.0835705 52.0646 -1.08741 51.0876 -1.63476C50.0722 -2.20371 49.21 -2.61857 49.0018 -2.71939C48.9227 -2.75766 48.8536 -2.79087 48.8092 -2.81217C48.7867 -2.82298 48.7648 -2.83345 48.75 -2.84055C48.7333 -2.84859 48.7228 -2.8536 48.7132 -2.85821C48.6731 -2.87746 48.7033 -2.86307 48.7578 -2.8364L19.4117 57.0239C19.564 57.0985 20.2963 57.4519 19.9548 57.2866C19.9249 57.2721 19.7677 57.196 19.5509 57.0859C19.3344 56.976 18.9629 56.7838 18.5018 56.5254C17.7089 56.0812 15.8657 55.011 13.7613 53.2673C11.5773 51.4577 8.48016 48.4079 5.95746 43.8143L64.3921 11.7232Z" fill="black" mask="url(#path-1-inside-1_81_327)"/>
</svg>
