<svg width="69" height="45" viewBox="0 0 69 45" fill="none" xmlns="http://www.w3.org/2000/svg">
<mask id="path-1-inside-1_81_328" fill="white">
<path d="M0.351562 6.19213C0.351562 3.6616 2.0956 2.66473 4.24078 2.53053L14.2288 2.59656C14.8316 2.59656 15.3679 2.99702 15.5695 3.59557C17.8498 10.9188 20.6643 15.4452 24.0173 20.5702C24.2189 20.9706 24.5536 21.1687 24.8882 21.1687C25.1563 21.1687 25.4245 21.0345 25.6261 20.7022L25.8278 19.9695L25.8943 8.45428C25.8943 6.79069 25.0899 6.52443 23.2128 6.25817C22.4749 6.12397 22.0051 5.45939 22.0051 4.79267C22.0051 4.65848 22.0051 4.52641 22.0716 4.39222C23.0112 1.5294 25.9608 0.0660327 30.116 0.0660327L33.8701 0C36.9549 0 39.7694 1.3313 39.7694 5.25916V20.3699C40.0375 20.5702 40.3057 20.7022 40.6403 20.7022C41.1766 20.7022 41.848 20.3699 42.3843 19.503C45.8703 14.6443 49.826 8.8526 50.3623 5.78955C50.3623 5.65535 50.4288 5.58932 50.4974 5.45726C51.2354 3.99176 53.1124 2.99489 53.9169 2.72863C54.052 2.6626 54.2515 2.59443 54.5197 2.59443H64.9109L65.5824 2.66047C66.5885 2.66047 67.3264 3.32718 67.6611 3.92573C68.2639 4.85871 68.1309 5.85558 68.1974 6.25604V6.72252C67.1913 12.7805 60.2194 19.569 57.2698 23.9634C56.8665 24.4959 56.667 24.9624 56.667 25.4289C56.667 25.8293 56.8686 26.2276 57.2033 26.6281L66.9918 38.876C67.5281 39.6088 67.7962 40.4736 67.7962 41.2063C67.7962 43.4024 65.7175 44.6677 63.7075 44.8679L62.5684 44.934H52.3788C52.1771 44.934 52.0441 45 51.8425 45C50.7034 45 49.7638 44.4015 49.0945 43.7347C46.9493 41.1382 44.8706 38.4756 42.7919 35.879C42.3886 35.3465 42.2556 35.2805 41.8523 35.0142C41.3825 36.9441 40.9814 38.9421 40.5116 40.9379L40.3099 42.069C39.9753 43.2683 39.1022 44.5314 37.4933 44.8658L36.5537 44.9318H29.983C18.3861 44.9318 7.99486 28.5558 0.688357 8.12198C0.486709 7.58946 0.353708 6.85672 0.353708 6.19213H0.351562ZM40.6403 23.433C38.8963 23.433 36.9527 22.434 36.9527 20.5702V5.25916C36.9527 3.46137 36.1483 2.79679 33.9366 2.79679L30.116 2.93099C27.9708 2.93099 26.7631 3.26328 25.7591 3.92999C27.3015 4.66274 28.7088 5.66174 28.7088 8.4564V20.1718C28.5071 22.5021 26.5636 24.0337 24.6866 24.0337C23.4123 24.0337 22.2732 23.3009 21.6018 22.1038C18.5856 17.5774 16.0372 13.3172 13.8255 7.19327L13.2227 5.46152L4.30729 5.39548C3.09955 5.39548 3.23469 5.46152 3.23469 6.0622C3.23469 6.46265 3.30119 6.99517 3.36984 7.32746L4.77708 11.0551C12.0836 29.8275 21.2693 42.1414 29.983 42.1414H36.6867C37.6263 42.1414 37.5577 41.0104 37.7593 40.3437L39.0336 34.4859C39.3017 33.8874 39.5034 33.3549 39.9731 32.8884C40.5094 32.3559 41.1122 32.1556 41.7172 32.1556C42.9914 32.1556 44.197 33.1546 45.0015 34.0855L50.6991 41.2745C51.1689 42.0072 51.57 42.1393 51.8382 42.1393H62.8988C63.9713 42.1393 64.9109 41.807 64.9109 41.1403C64.9109 40.9401 64.8444 40.6738 64.7093 40.4736L54.9894 28.4259C54.185 27.4269 53.8504 26.4279 53.8504 25.431C53.8504 24.3659 54.2537 23.3009 54.923 22.3679C57.7396 18.1738 63.7718 12.184 65.1791 7.25717L65.3807 6.39236C65.3142 6.06007 65.3142 5.79381 65.2456 5.45939H54.7213C54.0499 5.72565 53.5136 6.1261 53.1124 6.65862L52.7091 7.92389C51.1667 12.184 46.9429 18.0418 43.9267 22.1017C42.9206 23.0347 41.7794 23.433 40.6403 23.433Z"/>
</mask>
<path d="M0.351562 6.19213C0.351562 3.6616 2.0956 2.66473 4.24078 2.53053L14.2288 2.59656C14.8316 2.59656 15.3679 2.99702 15.5695 3.59557C17.8498 10.9188 20.6643 15.4452 24.0173 20.5702C24.2189 20.9706 24.5536 21.1687 24.8882 21.1687C25.1563 21.1687 25.4245 21.0345 25.6261 20.7022L25.8278 19.9695L25.8943 8.45428C25.8943 6.79069 25.0899 6.52443 23.2128 6.25817C22.4749 6.12397 22.0051 5.45939 22.0051 4.79267C22.0051 4.65848 22.0051 4.52641 22.0716 4.39222C23.0112 1.5294 25.9608 0.0660327 30.116 0.0660327L33.8701 0C36.9549 0 39.7694 1.3313 39.7694 5.25916V20.3699C40.0375 20.5702 40.3057 20.7022 40.6403 20.7022C41.1766 20.7022 41.848 20.3699 42.3843 19.503C45.8703 14.6443 49.826 8.8526 50.3623 5.78955C50.3623 5.65535 50.4288 5.58932 50.4974 5.45726C51.2354 3.99176 53.1124 2.99489 53.9169 2.72863C54.052 2.6626 54.2515 2.59443 54.5197 2.59443H64.9109L65.5824 2.66047C66.5885 2.66047 67.3264 3.32718 67.6611 3.92573C68.2639 4.85871 68.1309 5.85558 68.1974 6.25604V6.72252C67.1913 12.7805 60.2194 19.569 57.2698 23.9634C56.8665 24.4959 56.667 24.9624 56.667 25.4289C56.667 25.8293 56.8686 26.2276 57.2033 26.6281L66.9918 38.876C67.5281 39.6088 67.7962 40.4736 67.7962 41.2063C67.7962 43.4024 65.7175 44.6677 63.7075 44.8679L62.5684 44.934H52.3788C52.1771 44.934 52.0441 45 51.8425 45C50.7034 45 49.7638 44.4015 49.0945 43.7347C46.9493 41.1382 44.8706 38.4756 42.7919 35.879C42.3886 35.3465 42.2556 35.2805 41.8523 35.0142C41.3825 36.9441 40.9814 38.9421 40.5116 40.9379L40.3099 42.069C39.9753 43.2683 39.1022 44.5314 37.4933 44.8658L36.5537 44.9318H29.983C18.3861 44.9318 7.99486 28.5558 0.688357 8.12198C0.486709 7.58946 0.353708 6.85672 0.353708 6.19213H0.351562ZM40.6403 23.433C38.8963 23.433 36.9527 22.434 36.9527 20.5702V5.25916C36.9527 3.46137 36.1483 2.79679 33.9366 2.79679L30.116 2.93099C27.9708 2.93099 26.7631 3.26328 25.7591 3.92999C27.3015 4.66274 28.7088 5.66174 28.7088 8.4564V20.1718C28.5071 22.5021 26.5636 24.0337 24.6866 24.0337C23.4123 24.0337 22.2732 23.3009 21.6018 22.1038C18.5856 17.5774 16.0372 13.3172 13.8255 7.19327L13.2227 5.46152L4.30729 5.39548C3.09955 5.39548 3.23469 5.46152 3.23469 6.0622C3.23469 6.46265 3.30119 6.99517 3.36984 7.32746L4.77708 11.0551C12.0836 29.8275 21.2693 42.1414 29.983 42.1414H36.6867C37.6263 42.1414 37.5577 41.0104 37.7593 40.3437L39.0336 34.4859C39.3017 33.8874 39.5034 33.3549 39.9731 32.8884C40.5094 32.3559 41.1122 32.1556 41.7172 32.1556C42.9914 32.1556 44.197 33.1546 45.0015 34.0855L50.6991 41.2745C51.1689 42.0072 51.57 42.1393 51.8382 42.1393H62.8988C63.9713 42.1393 64.9109 41.807 64.9109 41.1403C64.9109 40.9401 64.8444 40.6738 64.7093 40.4736L54.9894 28.4259C54.185 27.4269 53.8504 26.4279 53.8504 25.431C53.8504 24.3659 54.2537 23.3009 54.923 22.3679C57.7396 18.1738 63.7718 12.184 65.1791 7.25717L65.3807 6.39236C65.3142 6.06007 65.3142 5.79381 65.2456 5.45939H54.7213C54.0499 5.72565 53.5136 6.1261 53.1124 6.65862L52.7091 7.92389C51.1667 12.184 46.9429 18.0418 43.9267 22.1017C42.9206 23.0347 41.7794 23.433 40.6403 23.433Z" fill="black"/>
<path d="M0.351562 6.19213H-24.6484V31.1921H0.351562V6.19213ZM4.24078 2.53053L4.40606 -22.4689L3.54216 -22.4746L2.67993 -22.4207L4.24078 2.53053ZM14.2288 2.59656L14.0635 27.596L14.1461 27.5966H14.2288V2.59656ZM15.5695 3.59557L39.4391 -3.83704L39.3533 -4.11253L39.2612 -4.38597L15.5695 3.59557ZM24.0173 20.5702L46.3462 9.3265L45.711 8.06509L44.9378 6.88323L24.0173 20.5702ZM25.6261 20.7022L46.9987 33.6719L48.8059 30.694L49.7301 27.3354L25.6261 20.7022ZM25.8278 19.9695L49.9317 26.6027L50.8083 23.4174L50.8274 20.1138L25.8278 19.9695ZM25.8943 8.45428L50.8939 8.59865L50.8943 8.52646V8.45428H25.8943ZM23.2128 6.25817L18.7399 30.8548L19.2193 30.942L19.7017 31.0104L23.2128 6.25817ZM22.0716 4.39222L44.4719 15.4928L45.2668 13.8889L45.8249 12.1882L22.0716 4.39222ZM30.116 0.0660327V25.066H30.3359L30.5557 25.0622L30.116 0.0660327ZM33.8701 0V-25H33.6502L33.4304 -24.9961L33.8701 0ZM39.7694 20.3699H14.7694V32.903L24.8117 40.4016L39.7694 20.3699ZM42.3843 19.503L22.0715 4.92936L21.5732 5.62391L21.1235 6.35088L42.3843 19.503ZM50.3623 5.78955L74.9877 10.1011L75.3623 7.9616V5.78955H50.3623ZM50.4974 5.45726L72.6798 16.9874L72.754 16.8446L72.8263 16.7009L50.4974 5.45726ZM53.9169 2.72863L61.7724 26.4624L63.375 25.9319L64.8918 25.1908L53.9169 2.72863ZM64.9109 2.59443L67.3577 -22.2855L66.1373 -22.4056H64.9109V2.59443ZM65.5824 2.66047L63.1356 27.5404L64.356 27.6605H65.5824V2.66047ZM67.6611 3.92573L45.84 16.1258L46.2295 16.8225L46.6627 17.4929L67.6611 3.92573ZM68.1974 6.25604H93.1974V4.19436L92.8596 2.16054L68.1974 6.25604ZM68.1974 6.72252L92.8596 10.8184L93.1974 8.78438V6.72252H68.1974ZM57.2698 23.9634L77.1994 39.0567L77.6299 38.4884L78.0272 37.8964L57.2698 23.9634ZM57.2033 26.6281L76.7327 11.0203L76.562 10.8068L76.3867 10.597L57.2033 26.6281ZM66.9918 38.876L87.1657 24.1108L86.8524 23.6827L86.5212 23.2683L66.9918 38.876ZM63.7075 44.8679L65.1543 69.826L65.6708 69.7961L66.1856 69.7448L63.7075 44.8679ZM62.5684 44.934V69.934H63.2924L64.0152 69.8921L62.5684 44.934ZM49.0945 43.7347L29.8212 59.6577L30.5928 60.5916L31.451 61.4466L49.0945 43.7347ZM42.7919 35.879L22.8623 50.9724L23.0653 51.2405L23.2755 51.503L42.7919 35.879ZM41.8523 35.0142L55.6264 14.151L25.9678 -5.42996L17.5617 29.101L41.8523 35.0142ZM40.5116 40.9379L16.1766 35.2099L16.0198 35.8762L15.8997 36.5501L40.5116 40.9379ZM40.3099 42.069L64.39 48.7886L64.7117 47.6355L64.9219 46.4568L40.3099 42.069ZM37.4933 44.8658L39.2459 69.8043L40.9291 69.686L42.581 69.3426L37.4933 44.8658ZM36.5537 44.9318V69.9318H37.4311L38.3063 69.8703L36.5537 44.9318ZM0.688357 8.12198L24.2287 -0.295323L24.1505 -0.514018L24.0683 -0.731223L0.688357 8.12198ZM0.353708 6.19213H25.3537V-18.8079H0.353708V6.19213ZM33.9366 2.79679V-22.2032H33.4977L33.059 -22.1878L33.9366 2.79679ZM30.116 2.93099V27.931H30.5549L30.9936 27.9156L30.116 2.93099ZM25.7591 3.92999L11.9288 -16.896L-24.8818 7.54965L15.0314 26.5113L25.7591 3.92999ZM28.7088 20.1718L53.6157 22.3271L53.7088 21.2515V20.1718H28.7088ZM21.6018 22.1038L43.4061 9.87395L42.9374 9.03832L42.4062 8.24101L21.6018 22.1038ZM13.8255 7.19327L-9.78504 15.4117L-9.73734 15.5488L-9.68806 15.6852L13.8255 7.19327ZM13.2227 5.46152L36.8332 -2.75696L31.0375 -19.4072L13.4078 -19.5378L13.2227 5.46152ZM4.30729 5.39548L4.49245 -19.6038L4.39987 -19.6045H4.30729V5.39548ZM3.36984 7.32746L-21.1132 12.3852L-20.7147 14.3143L-20.019 16.1571L3.36984 7.32746ZM4.77708 11.0551L-18.6117 19.8848L-18.5667 20.004L-18.5205 20.1229L4.77708 11.0551ZM37.7593 40.3437L61.6888 47.5811L61.9767 46.6293L62.188 45.6577L37.7593 40.3437ZM39.0336 34.4859L16.2184 24.2649L15.1568 26.6346L14.6049 29.1719L39.0336 34.4859ZM39.9731 32.8884L57.5882 50.6284L39.9731 32.8884ZM45.0015 34.0855L64.5942 18.5573L64.2642 18.1409L63.9167 17.7388L45.0015 34.0855ZM50.6991 41.2745L71.7449 27.7811L71.0693 26.7273L70.2919 25.7464L50.6991 41.2745ZM64.7093 40.4736L85.4308 26.4872L84.8351 25.6047L84.1665 24.7759L64.7093 40.4736ZM54.9894 28.4259L35.5176 44.1054L35.5249 44.1145L35.5322 44.1235L54.9894 28.4259ZM54.923 22.3679L75.2365 36.9405L75.4617 36.6265L75.6772 36.3058L54.923 22.3679ZM65.1791 7.25717L89.2177 14.1232L89.3865 13.5325L89.526 12.9342L65.1791 7.25717ZM65.3807 6.39236L89.7276 12.0694L90.9572 6.79603L89.8947 1.48645L65.3807 6.39236ZM65.2456 5.45939L89.735 0.432512L85.6352 -19.5406H65.2456V5.45939ZM54.7213 5.45939V-19.5406H49.9454L45.5057 -17.7801L54.7213 5.45939ZM53.1124 6.65862L33.1441 -8.38359L30.5849 -4.98622L29.2931 -0.933639L53.1124 6.65862ZM52.7091 7.92389L76.2159 16.4345L76.3811 15.9784L76.5284 15.5161L52.7091 7.92389ZM43.9267 22.1017L60.9257 40.4329L62.6183 38.8633L63.9949 37.0104L43.9267 22.1017ZM25.3516 6.19213C25.3516 11.3025 23.2441 17.9153 17.4238 22.7285C12.5629 26.7482 7.66067 27.3655 5.80164 27.4818L2.67993 -22.4207C-1.32429 -22.1702 -8.17111 -20.9874 -14.4403 -15.8031C-21.6689 -9.82531 -24.6484 -1.44874 -24.6484 6.19213H25.3516ZM4.07551 27.53L14.0635 27.596L14.394 -22.4029L4.40606 -22.4689L4.07551 27.53ZM14.2288 27.5966C3.38132 27.5966 -5.13296 20.4499 -8.12215 11.5771L39.2612 -4.38597C35.8687 -14.4559 26.2818 -22.4034 14.2288 -22.4034V27.5966ZM-8.30005 11.0282C-4.97491 21.7067 -0.636535 28.5507 3.09673 34.2571L44.9378 6.88323C41.9652 2.33962 40.6746 0.130803 39.4391 -3.83704L-8.30005 11.0282ZM1.68834 31.8138C5.56355 39.5096 13.8982 46.1687 24.8882 46.1687V-3.8313C35.2089 -3.8313 42.8743 2.4316 46.3462 9.3265L1.68834 31.8138ZM24.8882 46.1687C34.8486 46.1687 42.7831 40.6188 46.9987 33.6719L4.25357 7.73252C5.94689 4.94212 8.59233 1.90778 12.4665 -0.405239C16.3935 -2.74981 20.7218 -3.8313 24.8882 -3.8313V46.1687ZM49.7301 27.3354L49.9317 26.6027L1.72385 13.3362L1.5222 14.069L49.7301 27.3354ZM50.8274 20.1138L50.8939 8.59865L0.894711 8.3099L0.82821 19.8251L50.8274 20.1138ZM50.8943 8.45428C50.8943 3.56623 49.4893 -6.65907 39.6812 -13.5872C36.0199 -16.1735 32.5216 -17.2452 30.7252 -17.7131C28.911 -18.1856 27.3055 -18.4115 26.7239 -18.494L19.7017 31.0104C20.0586 31.061 19.2576 30.9682 18.1221 30.6725C17.0045 30.3814 14.0592 29.5301 10.8337 27.2517C7.12199 24.6299 4.20981 20.957 2.51276 16.6949C1.02621 12.9615 0.894294 9.82896 0.894294 8.45428H50.8943ZM27.6857 -18.3384C40.0251 -16.0945 47.0051 -5.37073 47.0051 4.79267H-2.99493C-2.99493 16.2895 4.92466 28.3425 18.7399 30.8548L27.6857 -18.3384ZM47.0051 4.79267C47.0051 4.07656 47.3578 9.66938 44.4719 15.4928L-0.328805 -6.70837C-1.87375 -3.59075 -2.52094 -0.691496 -2.79393 1.49448C-2.92308 2.52871 -2.9651 3.37897 -2.98176 3.91377C-2.99021 4.18483 -2.99295 4.40723 -2.99405 4.54818C-2.99506 4.67826 -2.99493 4.79223 -2.99493 4.79267H47.0051ZM45.8249 12.1882C44.0681 17.541 40.299 21.2946 36.5366 23.2759C33.2671 24.9976 30.7131 25.066 30.116 25.066V-24.934C21.5605 -24.934 4.26603 -21.5261 -1.68181 -3.40375L45.8249 12.1882ZM30.5557 25.0622L34.3098 24.9961L33.4304 -24.9961L29.6763 -24.9301L30.5557 25.0622ZM33.8701 25C32.3893 25 27.7477 24.7655 22.8959 21.0959C20.2853 19.1214 18.0526 16.4472 16.5763 13.2435C15.139 10.1247 14.7694 7.27611 14.7694 5.25916H64.7694C64.7694 -3.39545 61.2525 -12.5843 53.0572 -18.7826C46.0269 -24.0998 38.4357 -25 33.8701 -25V25ZM14.7694 5.25916V20.3699H64.7694V5.25916H14.7694ZM24.8117 40.4016C27.3457 42.2937 32.8171 45.7022 40.6403 45.7022V-4.29778C47.7942 -4.29778 52.7293 -1.15343 54.7271 0.338272L24.8117 40.4016ZM40.6403 45.7022C51.8889 45.7022 59.7476 38.9557 63.6452 32.6551L21.1235 6.35088C23.9485 1.78417 30.4643 -4.29778 40.6403 -4.29778V45.7022ZM62.6971 34.0766C64.4957 31.5698 66.8069 28.2856 68.8047 25.0202C70.1231 22.8654 73.7957 16.9089 74.9877 10.1011L25.7369 1.47799C25.9882 0.0426199 26.3286 -0.971766 26.4918 -1.42431C26.6709 -1.92084 26.8055 -2.20152 26.8158 -2.22304C26.8207 -2.23329 26.6436 -1.87442 26.1541 -1.0744C25.1686 0.536485 23.7589 2.57746 22.0715 4.92936L62.6971 34.0766ZM75.3623 5.78955C75.3623 7.90703 75.0887 10.0661 74.5133 12.2022C73.9533 14.2809 73.2264 15.8918 72.7089 16.914C72.2779 17.7654 71.8367 18.4905 71.9647 18.274C71.9752 18.2564 72.3115 17.6959 72.6798 16.9874L28.3151 -6.0729C28.649 -6.71533 28.9513 -7.21807 28.93 -7.18199C28.9298 -7.18176 28.9297 -7.18154 28.9291 -7.18045C28.9286 -7.17959 28.9276 -7.17804 28.9266 -7.1763C28.9246 -7.17289 28.9211 -7.16704 28.917 -7.16005C28.909 -7.14643 28.8952 -7.12315 28.8785 -7.09466C28.8461 -7.03947 28.79 -6.94356 28.7218 -6.82438C28.5896 -6.5931 28.3612 -6.18605 28.0993 -5.6688C27.5567 -4.59684 26.8088 -2.93594 26.2342 -0.803036C25.6442 1.38735 25.3623 3.60497 25.3623 5.78955H75.3623ZM72.8263 16.7009C70.5984 21.1255 67.5832 23.3754 66.5653 24.0914C65.409 24.9047 63.9003 25.7581 61.7724 26.4624L46.0613 -21.0051C43.1289 -20.0345 40.2796 -18.5497 37.7991 -16.8049C35.4571 -15.1576 31.1344 -11.6764 28.1685 -5.78639L72.8263 16.7009ZM64.8918 25.1908C62.2449 26.4841 58.7045 27.5944 54.5197 27.5944V-22.4056C49.7986 -22.4056 45.8591 -21.1589 42.9419 -19.7336L64.8918 25.1908ZM54.5197 27.5944H64.9109V-22.4056H54.5197V27.5944ZM62.4641 27.4744L63.1356 27.5404L68.0292 -22.2195L67.3577 -22.2855L62.4641 27.4744ZM65.5824 27.6605C54.9677 27.6605 48.5114 20.9039 45.84 16.1258L89.4821 -8.27437C86.1414 -14.2495 78.2093 -22.3395 65.5824 -22.3395V27.6605ZM46.6627 17.4929C44.2348 13.7351 43.5408 10.1867 43.312 8.29884C43.2043 7.41024 43.1852 6.72156 43.1886 6.81201C43.1895 6.83402 43.1889 6.82031 43.1907 6.86549C43.1917 6.89282 43.1935 6.93956 43.1957 6.99354C43.1998 7.09375 43.2081 7.28844 43.2218 7.52505C43.2421 7.87615 43.3075 8.98099 43.5351 10.3515L92.8596 2.16054C93.0706 3.43097 93.1256 4.41706 93.1381 4.63334C93.1524 4.88014 93.1615 5.14575 93.1519 4.89636C93.1428 4.65811 93.1068 3.58682 92.9487 2.28232C92.619 -0.437329 91.6902 -4.95069 88.6595 -9.6414L46.6627 17.4929ZM43.1974 6.25604V6.72252H93.1974V6.25604H43.1974ZM43.5352 2.62667C43.7262 1.47633 44.0006 0.64356 44.1761 0.179587C44.2675 -0.0622218 44.3459 -0.240271 44.3974 -0.351094C44.4491 -0.462292 44.4815 -0.522481 44.4851 -0.529046C44.4866 -0.531817 44.4124 -0.395821 44.2195 -0.103996C44.0289 0.184407 43.7676 0.556821 43.4134 1.03235C42.6386 2.07246 41.819 3.0814 40.5929 4.60708C39.6113 5.82863 37.9445 7.89676 36.5124 10.0303L78.0272 37.8964C77.9849 37.9594 78.0646 37.8372 78.3683 37.442C78.6656 37.0552 79.0381 36.5864 79.5673 35.928C80.5095 34.7556 82.0488 32.8648 83.5114 30.9012C84.9906 28.9155 86.8307 26.2818 88.4755 23.2373C90.0746 20.2774 91.9971 16.0112 92.8596 10.8184L43.5352 2.62667ZM37.3402 8.86998C35.2742 11.598 31.667 17.3235 31.667 25.4289H81.667C81.667 32.6013 78.4588 37.3938 77.1994 39.0567L37.3402 8.86998ZM31.667 25.4289C31.667 34.338 36.0746 40.3314 38.0198 42.6592L76.3867 10.597C77.6627 12.1239 81.667 17.3206 81.667 25.4289H31.667ZM37.6739 42.2359L47.4624 54.4838L86.5212 23.2683L76.7327 11.0203L37.6739 42.2359ZM46.8179 53.6413C44.3855 50.3179 42.7962 46.059 42.7962 41.2063H92.7962C92.7962 34.8882 90.6707 28.8997 87.1657 24.1108L46.8179 53.6413ZM42.7962 41.2063C42.7962 33.4395 46.7977 27.5316 50.9019 24.253C54.5294 21.3551 58.3067 20.2822 61.2294 19.9911L66.1856 69.7448C71.1184 69.2534 76.94 67.4478 82.1093 63.3182C87.7554 58.8078 92.7962 51.1693 92.7962 41.2063H42.7962ZM62.2607 19.9098L61.1216 19.9759L64.0152 69.8921L65.1543 69.826L62.2607 19.9098ZM62.5684 19.934H52.3788V69.934H62.5684V19.934ZM52.3788 19.934C51.6663 19.934 50.9972 19.9633 50.3769 20.0113C49.7592 20.0592 49.2127 20.1237 48.7534 20.1884C48.3002 20.2522 47.9283 20.3167 47.6818 20.3617C47.5583 20.3843 47.4565 20.4037 47.3899 20.4166C47.3283 20.4286 47.2742 20.4393 47.2709 20.4399C47.2533 20.4434 47.2865 20.4368 47.3271 20.429C47.3727 20.4201 47.4535 20.4046 47.5558 20.3859C47.7599 20.3487 48.0889 20.2914 48.4981 20.2338C48.9134 20.1753 49.4149 20.1159 49.986 20.0717C50.5596 20.0273 51.1804 20 51.8425 20V70C52.5549 70 53.224 69.9706 53.8443 69.9226C54.4621 69.8748 55.0086 69.8103 55.4679 69.7456C55.921 69.6818 56.293 69.6173 56.5394 69.5723C56.6629 69.5497 56.7647 69.5302 56.8313 69.5173C56.8929 69.5054 56.947 69.4947 56.9503 69.4941C56.9679 69.4906 56.9347 69.4972 56.8942 69.505C56.8485 69.5138 56.7677 69.5293 56.6655 69.548C56.4614 69.5853 56.1323 69.6426 55.7232 69.7002C55.3078 69.7587 54.8064 69.8181 54.2352 69.8623C53.6616 69.9067 53.0408 69.934 52.3788 69.934V19.934ZM51.8425 20C59.8107 20 64.8478 24.14 66.7379 26.0229L31.451 61.4466C34.6798 64.6629 41.5961 70 51.8425 70V20ZM68.3678 27.8118C66.3791 25.4047 64.6495 23.1794 62.3084 20.2551L23.2755 51.503C25.0917 53.7717 27.5195 56.8717 29.8212 59.6577L68.3678 27.8118ZM62.7215 20.7856C62.0982 19.9625 60.7523 18.2396 58.7081 16.4655C57.7117 15.6008 56.8391 14.9734 56.2867 14.5932C55.9484 14.3604 55.3887 13.994 55.6264 14.151L28.0782 55.8774C28.5176 56.1675 28.1258 55.9093 27.9385 55.7803C27.537 55.504 26.7985 54.9764 25.9362 54.228C24.1601 52.6866 23.0824 51.263 22.8623 50.9724L62.7215 20.7856ZM17.5617 29.101C17.2532 30.3684 16.9816 31.5987 16.7653 32.5824C16.5314 33.6458 16.3594 34.4333 16.1766 35.2099L64.8465 46.666C65.788 42.6661 65.4785 43.6567 66.1429 40.9274L17.5617 29.101ZM15.8997 36.5501L15.698 37.6812L64.9219 46.4568L65.1235 45.3258L15.8997 36.5501ZM16.2299 35.3494C17.4989 30.8019 21.965 22.5591 32.4056 20.389L42.581 69.3426C56.2394 66.5036 62.4517 55.7346 64.39 48.7886L16.2299 35.3494ZM35.7407 19.9273L34.8011 19.9933L38.3063 69.8703L39.2459 69.8043L35.7407 19.9273ZM36.5537 19.9318H29.983V69.9318H36.5537V19.9318ZM29.983 19.9318C33.233 19.9318 35.2313 21.1302 35.6271 21.4001C35.8868 21.5772 35.18 21.137 33.7635 19.2387C30.8727 15.3645 27.4539 8.7244 24.2287 -0.295323L-22.852 16.5393C-18.7707 27.9534 -13.3406 39.7182 -6.30994 49.1405C0.000397117 57.5974 11.9871 69.9318 29.983 69.9318V19.9318ZM24.0683 -0.731223C24.6217 0.730236 24.9085 1.97057 25.0685 2.88186C25.2345 3.82696 25.3537 4.92992 25.3537 6.19213H-24.6463C-24.6463 9.63527 -24.0482 13.3924 -22.6916 16.9752L24.0683 -0.731223ZM0.353708 -18.8079H0.351562V31.1921H0.353708V-18.8079ZM40.6403 -1.56703C44.0631 -1.56703 48.2429 -0.686898 52.282 2.08312C56.8411 5.20979 61.9527 11.5585 61.9527 20.5702H11.9527C11.9527 31.4456 18.0361 39.2257 24.0031 43.3179C29.4499 47.0533 35.4735 48.433 40.6403 48.433V-1.56703ZM61.9527 20.5702V5.25916H11.9527V20.5702H61.9527ZM61.9527 5.25916C61.9527 1.23315 61.0839 -8.64636 52.1081 -15.9926C44.5613 -22.1692 36.1843 -22.2032 33.9366 -22.2032V27.7968C33.9005 27.7968 27.0316 28.0951 20.44 22.7002C12.4194 16.1357 11.9527 7.48738 11.9527 5.25916H61.9527ZM33.059 -22.1878L29.2385 -22.0536L30.9936 27.9156L34.8142 27.7814L33.059 -22.1878ZM30.116 -22.069C25.2743 -22.069 18.5579 -21.2983 11.9288 -16.896L39.5895 24.756C37.6121 26.0692 35.4465 26.9871 33.3266 27.4943C31.4878 27.9342 30.2284 27.931 30.116 27.931V-22.069ZM15.0314 26.5113C14.8124 26.4073 11.2783 24.8274 8.18113 20.8995C4.61554 16.3776 3.70878 11.5605 3.70878 8.4564H53.7088C53.7088 2.55768 52.0984 -4.15626 47.4436 -10.0595C43.2572 -15.3688 38.2483 -17.8145 36.4869 -18.6513L15.0314 26.5113ZM3.70878 8.4564V20.1718H53.7088V8.4564H3.70878ZM3.80185 18.0166C4.74643 7.1007 13.9184 -0.966344 24.6866 -0.966344V49.0337C39.2088 49.0337 52.2678 37.9036 53.6157 22.3271L3.80185 18.0166ZM24.6866 -0.966344C33.6804 -0.966344 40.2877 4.31411 43.4061 9.87395L-0.202594 34.3337C4.25875 42.2877 13.1442 49.0337 24.6866 49.0337V-0.966344ZM42.4062 8.24101C39.9507 4.55603 38.5948 2.17856 37.339 -1.2987L-9.68806 15.6852C-6.52051 24.4559 -2.77943 30.5988 0.797387 35.9666L42.4062 8.24101ZM37.436 -1.02521L36.8332 -2.75696L-10.3878 13.68L-9.78504 15.4117L37.436 -1.02521ZM13.4078 -19.5378L4.49245 -19.6038L4.12213 30.3948L13.0375 30.4608L13.4078 -19.5378ZM4.30729 -19.6045C4.11711 -19.6045 2.72321 -19.6174 1.16462 -19.4629C0.60139 -19.4071 -5.92833 -19 -12.0778 -14.1933C-20.4191 -7.6734 -21.5152 1.16129 -21.7093 3.99869C-21.7993 5.31478 -21.7627 6.41267 -21.7624 6.42449C-21.7552 6.74522 -21.7653 6.35806 -21.7653 6.0622H28.2347C28.2347 5.61617 28.2203 5.09555 28.2249 5.29769C28.2255 5.32363 28.231 5.55268 28.2301 5.85454C28.2291 6.15787 28.2219 6.71273 28.1742 7.41054C27.9925 10.0666 26.938 18.7722 18.714 25.2004C12.6817 29.9155 6.34463 30.2686 6.09574 30.2933C4.85148 30.4166 3.89359 30.3955 4.30729 30.3955V-19.6045ZM-21.7653 6.0622C-21.7653 8.47557 -21.4557 10.7274 -21.1132 12.3852L27.8529 2.26968C28.0028 2.99541 28.0781 3.55392 28.1207 3.93375C28.1604 4.28716 28.2347 5.03748 28.2347 6.0622H-21.7653ZM-20.019 16.1571L-18.6117 19.8848L28.1659 2.22544L26.7587 -1.50219L-20.019 16.1571ZM-18.5205 20.1229C-14.3718 30.7819 -9.16341 41.0606 -2.74155 49.1646C2.87255 56.2493 13.7963 67.1414 29.983 67.1414V17.1414C33.8793 17.1414 36.3809 18.5417 37.1359 19.0383C37.8135 19.4841 37.511 19.4548 36.4462 18.1112C34.2702 15.3651 31.2325 10.1006 28.0746 1.98733L-18.5205 20.1229ZM29.983 67.1414H36.6867V17.1414H29.983V67.1414ZM36.6867 67.1414C42.4583 67.1414 48.7959 65.192 53.9857 60.5012C58.5296 56.3943 60.4036 51.7736 61.149 49.599C61.8956 47.421 62.2151 45.4895 62.2295 45.4109C62.3919 44.5245 62.1496 46.0573 61.6888 47.5811L13.8299 33.1062C13.4859 34.2436 13.2868 35.1804 13.1949 35.6325C13.144 35.8827 13.105 36.0908 13.0834 36.2076C13.0723 36.2679 13.0626 36.3208 13.0573 36.3501C13.0501 36.3894 13.0497 36.3918 13.048 36.4008C12.9892 36.7217 13.2294 35.1981 13.8505 33.3861C14.4705 31.5776 16.1728 27.2814 20.459 23.4074C25.3911 18.9495 31.385 17.1414 36.6867 17.1414V67.1414ZM62.188 45.6577L63.4623 39.8L14.6049 29.1719L13.3306 35.0296L62.188 45.6577ZM61.8487 44.707C61.9186 44.5509 61.9856 44.3986 62.0051 44.3545C62.0376 44.2808 62.0269 44.3055 62.0055 44.3528C61.9647 44.443 61.7695 44.8743 61.4642 45.4442C60.7814 46.7187 59.5667 48.6638 57.5882 50.6284L22.3581 15.1484C19.9098 17.5794 18.3594 20.0241 17.3913 21.8311C16.9433 22.6672 16.6181 23.373 16.4494 23.746C16.364 23.9347 16.2899 24.1028 16.2582 24.1746C16.2135 24.2761 16.2155 24.2714 16.2184 24.2649L61.8487 44.707ZM57.5882 50.6284C55.5832 52.6193 53.0512 54.3627 50.055 55.5538C47.0885 56.7332 44.2126 57.1556 41.7172 57.1556V7.15564C34.9715 7.15564 27.8936 9.65184 22.3581 15.1484L57.5882 50.6284ZM41.7172 57.1556C35.8507 57.1556 31.7273 54.9176 29.8766 53.7103C27.9154 52.431 26.6989 51.1411 26.0863 50.4322L63.9167 17.7388C62.4996 16.099 60.2781 13.8442 57.1944 11.8327C54.2212 9.89319 48.8579 7.15564 41.7172 7.15564V57.1556ZM25.4087 49.6136L31.1063 56.8026L70.2919 25.7464L64.5942 18.5573L25.4087 49.6136ZM29.6532 54.7679C33.0996 60.1433 40.4314 67.1393 51.8382 67.1393V17.1393C56.2951 17.1393 60.886 18.3779 64.9279 20.994C68.5698 23.3511 70.6815 26.1225 71.7449 27.7811L29.6532 54.7679ZM51.8382 67.1393H62.8988V17.1393H51.8382V67.1393ZM62.8988 67.1393C65.5057 67.1393 69.869 66.8064 74.5855 64.6792C78.9793 62.6975 89.9109 55.7639 89.9109 41.1403H39.9109C39.9109 27.1834 50.3728 20.7493 54.0287 19.1005C58.0072 17.3061 61.3644 17.1393 62.8988 17.1393V67.1393ZM89.9109 41.1403C89.9109 36.5647 88.6768 31.2963 85.4308 26.4872L43.9878 54.4599C42.3192 51.9878 41.3774 49.6051 40.8335 47.7126C40.2921 45.8288 39.9109 43.6178 39.9109 41.1403H89.9109ZM84.1665 24.7759L74.4467 12.7282L35.5322 44.1235L45.2521 56.1713L84.1665 24.7759ZM74.4613 12.7463C75.5658 14.118 76.7179 15.9573 77.5724 18.2731C78.4384 20.6199 78.8504 23.0571 78.8504 25.431H28.8504C28.8504 32.635 31.4644 39.0719 35.5176 44.1054L74.4613 12.7463ZM78.8504 25.431C78.8504 30.6653 76.9244 34.5877 75.2365 36.9405L34.6094 7.79537C31.583 12.0141 28.8504 18.0666 28.8504 25.431H78.8504ZM75.6772 36.3058C75.665 36.3239 75.7541 36.1914 76.0119 35.8526C76.2646 35.5203 76.5881 35.109 77.0303 34.5568C77.7735 33.6286 79.1716 31.9152 80.3692 30.3638C81.6284 28.7326 83.2197 26.5812 84.7052 24.1528C86.1253 21.8313 88.0047 18.3702 89.2177 14.1232L41.1404 0.391103C41.6499 -1.39245 42.2475 -2.25726 42.0528 -1.93886C41.9234 -1.72743 41.5668 -1.19552 40.7899 -0.189122C39.9514 0.897041 39.2254 1.77537 38.0014 3.30381C37.0082 4.54421 35.5147 6.42585 34.1687 8.43012L75.6772 36.3058ZM89.526 12.9342L89.7276 12.0694L41.0339 0.715288L40.8322 1.5801L89.526 12.9342ZM89.8947 1.48645C90.0053 2.0392 90.0739 2.49475 90.1147 2.79573C90.1344 2.94116 90.1478 3.05248 90.1542 3.10642C90.1593 3.14918 90.1632 3.18495 90.1567 3.12679C90.1512 3.07797 90.1101 2.70402 90.0498 2.26873C89.9836 1.79118 89.885 1.16315 89.735 0.432512L40.7562 10.4863C40.6405 9.92284 40.5676 9.4535 40.5228 9.13031C40.5012 8.9739 40.4862 8.85192 40.4782 8.78518C40.4712 8.72665 40.4665 8.68485 40.4712 8.72656C40.4731 8.74335 40.4855 8.85403 40.4995 8.97221C40.5148 9.10156 40.5376 9.28878 40.5677 9.51112C40.6294 9.96593 40.723 10.5794 40.8668 11.2983L89.8947 1.48645ZM65.2456 -19.5406H54.7213V30.4594H65.2456V-19.5406ZM45.5057 -17.7801C40.9129 -15.9588 36.5253 -12.872 33.1441 -8.38359L73.0807 21.7008C70.5018 25.1242 67.1868 27.4101 63.9369 28.6989L45.5057 -17.7801ZM29.2931 -0.933639L28.8898 0.331627L76.5284 15.5161L76.9317 14.2509L29.2931 -0.933639ZM29.2023 -0.586748C29.3907 -1.10715 29.4561 -1.14407 29.156 -0.59319C28.8887 -0.102382 28.4782 0.587059 27.9014 1.47554C26.7272 3.28439 25.3095 5.23988 23.8586 7.19298L63.9949 37.0104C65.5601 34.9035 67.7624 31.9002 69.8397 28.7002C71.7135 25.8136 74.4402 21.3392 76.2159 16.4345L29.2023 -0.586748ZM26.9277 3.77044C30.5822 0.381539 35.5267 -1.56703 40.6403 -1.56703V48.433C48.0321 48.433 55.259 45.6878 60.9257 40.4329L26.9277 3.77044Z" fill="black" mask="url(#path-1-inside-1_81_328)"/>
</svg>
