<svg width="61" height="45" viewBox="0 0 61 45" fill="none" xmlns="http://www.w3.org/2000/svg">
<mask id="path-1-inside-1_81_330" fill="white">
<path d="M55.7492 2.83666C54.1289 1.61844 49.6139 0 30.6958 0C10.4228 0 7.41402 1.85857 6.44784 2.46768C1.31045 5.69284 0.822684 19.9659 0.777832 22.8592C0.839503 26.6818 1.43005 39.4009 6.4441 42.546C7.40654 43.1531 10.3985 45 30.6939 45C49.6251 45 54.1345 43.3894 55.7473 42.1751C60.126 38.8835 60.6287 27.5525 60.6418 22.8085C60.6306 18.9937 60.2475 6.22191 55.7473 2.83666H55.7492ZM53.5664 39.0085C52.9142 39.4985 49.1747 41.0954 30.6939 41.0954C12.828 41.0954 9.07914 39.6469 8.37085 39.1998C6.56744 38.0694 4.66311 32.0701 4.51547 22.8475C4.66311 13.6464 6.59173 6.93059 8.37646 5.81193C9.08661 5.36486 12.8485 3.90456 30.6958 3.90456C49.1616 3.90456 52.9105 5.51323 53.5683 6.00521C55.1699 7.20976 56.8817 13.5508 56.9079 22.8202C56.8817 32.236 55.1587 37.8098 53.5683 39.0065L53.5664 39.0085ZM42.8824 20.9636L26.0667 10.1831C25.4893 9.81801 24.7679 9.8102 24.1829 10.1557C23.5943 10.5033 23.2317 11.1534 23.2317 11.8562V33.4191C23.2317 34.1219 23.5943 34.774 24.1829 35.1195C24.467 35.2874 24.7847 35.3714 25.1005 35.3714C25.4332 35.3714 25.7696 35.2777 26.0649 35.0922L42.8805 24.3078C43.4412 23.9544 43.7831 23.32 43.7831 22.6367C43.7831 21.9534 43.4412 21.3169 42.8805 20.9636H42.8824ZM26.9712 29.9616V15.3137L38.3019 22.6367L26.9712 29.9616Z"/>
</mask>
<path d="M55.7492 2.83666C54.1289 1.61844 49.6139 0 30.6958 0C10.4228 0 7.41402 1.85857 6.44784 2.46768C1.31045 5.69284 0.822684 19.9659 0.777832 22.8592C0.839503 26.6818 1.43005 39.4009 6.4441 42.546C7.40654 43.1531 10.3985 45 30.6939 45C49.6251 45 54.1345 43.3894 55.7473 42.1751C60.126 38.8835 60.6287 27.5525 60.6418 22.8085C60.6306 18.9937 60.2475 6.22191 55.7473 2.83666H55.7492ZM53.5664 39.0085C52.9142 39.4985 49.1747 41.0954 30.6939 41.0954C12.828 41.0954 9.07914 39.6469 8.37085 39.1998C6.56744 38.0694 4.66311 32.0701 4.51547 22.8475C4.66311 13.6464 6.59173 6.93059 8.37646 5.81193C9.08661 5.36486 12.8485 3.90456 30.6958 3.90456C49.1616 3.90456 52.9105 5.51323 53.5683 6.00521C55.1699 7.20976 56.8817 13.5508 56.9079 22.8202C56.8817 32.236 55.1587 37.8098 53.5683 39.0065L53.5664 39.0085ZM42.8824 20.9636L26.0667 10.1831C25.4893 9.81801 24.7679 9.8102 24.1829 10.1557C23.5943 10.5033 23.2317 11.1534 23.2317 11.8562V33.4191C23.2317 34.1219 23.5943 34.774 24.1829 35.1195C24.467 35.2874 24.7847 35.3714 25.1005 35.3714C25.4332 35.3714 25.7696 35.2777 26.0649 35.0922L42.8805 24.3078C43.4412 23.9544 43.7831 23.32 43.7831 22.6367C43.7831 21.9534 43.4412 21.3169 42.8805 20.9636H42.8824ZM26.9712 29.9616V15.3137L38.3019 22.6367L26.9712 29.9616Z" fill="black"/>
<path d="M55.7492 2.83666V27.8367H130.6L70.773 -17.1454L55.7492 2.83666ZM6.44784 2.46768L19.7401 23.6411L19.7602 23.6285L19.7803 23.6159L6.44784 2.46768ZM0.777832 22.8592L-24.2192 22.4717L-24.2253 22.8671L-24.2189 23.2625L0.777832 22.8592ZM6.4441 42.546L19.7829 21.4018L19.7557 21.3847L19.7285 21.3676L6.4441 42.546ZM55.7473 42.1751L40.7253 22.1916L40.7176 22.1974L40.7099 22.2032L55.7473 42.1751ZM60.6418 22.8085L85.6417 22.8774L85.6419 22.8062L85.6417 22.735L60.6418 22.8085ZM55.7473 2.83666V-22.1633H-19.0727L40.7185 22.815L55.7473 2.83666ZM53.5664 39.0085L68.5832 58.9958L70.2052 57.7773L71.6094 56.3131L53.5664 39.0085ZM8.37085 39.1998L21.715 18.059L21.6816 18.0379L21.6481 18.0169L8.37085 39.1998ZM4.51547 22.8475L-20.4813 22.4464L-20.4877 22.847L-20.4813 23.2477L4.51547 22.8475ZM8.37646 5.81193L21.6538 26.9948L21.6746 26.9817L21.6955 26.9686L8.37646 5.81193ZM53.5683 6.00521L68.5952 -13.9746L68.5682 -13.9949L68.5411 -14.0152L53.5683 6.00521ZM56.9079 22.8202L81.9078 22.8896L81.908 22.8196L81.9078 22.7496L56.9079 22.8202ZM53.5683 39.0065L38.5364 19.0305L36.923 20.2446L35.5253 21.7019L53.5683 39.0065ZM42.8824 20.9636V45.9636H128.199L56.3751 -0.0827276L42.8824 20.9636ZM26.0667 10.1831L39.5595 -10.8632L39.4929 -10.9059L39.426 -10.9482L26.0667 10.1831ZM24.1829 10.1557L36.8917 31.6845L36.8986 31.6804L24.1829 10.1557ZM24.1829 35.1195L36.9035 13.5977L36.8711 13.5786L36.8386 13.5595L24.1829 35.1195ZM26.0649 35.0922L39.3622 56.2624L39.4619 56.1998L39.561 56.1363L26.0649 35.0922ZM42.8805 24.3078L29.5504 3.15816L29.4671 3.21063L29.3843 3.26374L42.8805 24.3078ZM42.8805 20.9636V-4.03644H-43.6709L29.5504 42.1132L42.8805 20.9636ZM26.9712 29.9616H1.97123V75.8925L40.5438 50.9565L26.9712 29.9616ZM26.9712 15.3137L40.5413 -5.68286L1.97123 -30.6106V15.3137H26.9712ZM38.3019 22.6367L51.8745 43.6315L84.3549 22.6339L51.8719 1.64013L38.3019 22.6367ZM70.773 -17.1454C65.0261 -21.4663 58.5976 -22.9815 53.4339 -23.7595C47.9346 -24.5881 40.6481 -25 30.6958 -25V25C39.6616 25 44.0917 25.3973 45.9845 25.6825C48.2128 26.0182 44.852 25.9214 40.7254 22.8188L70.773 -17.1454ZM30.6958 -25C10.9097 -25 0.920599 -23.6012 -6.88464 -18.6805L19.7803 23.6159C19.8196 23.5911 19.6071 23.7263 19.3277 23.8906C19.0276 24.067 18.6746 24.2638 18.2776 24.4659C17.4671 24.8785 16.7348 25.1802 16.1306 25.394C15.0216 25.7863 14.5526 25.8072 15.2508 25.6963C16.7752 25.4544 21.1015 25 30.6958 25V-25ZM-6.84448 -18.7058C-14.5928 -13.8415 -18.1391 -6.67965 -19.6603 -3.04542C-21.4173 1.15206 -22.3611 5.31687 -22.9115 8.4154C-24.0264 14.6918 -24.189 20.5289 -24.2192 22.4717L25.7748 23.2467C25.7804 22.8843 25.8039 21.9474 25.8926 20.7433C25.9839 19.505 26.1258 18.2414 26.3178 17.1604C26.4111 16.635 26.4962 16.2682 26.5544 16.0511C26.6178 15.8148 26.6072 15.914 26.4621 16.2606C26.3329 16.5691 25.921 17.5012 25.0497 18.7167C24.1839 19.9243 22.5135 21.9001 19.7401 23.6411L-6.84448 -18.7058ZM-24.2189 23.2625C-24.179 25.7348 -23.9803 31.5457 -22.7928 37.696C-22.2033 40.7493 -21.1999 44.8141 -19.3513 48.9278C-17.6645 52.6815 -14.0818 59.1821 -6.8403 63.7244L19.7285 21.3676C22.2143 22.9269 23.8011 24.6805 24.706 25.8774C25.6056 27.0674 26.0697 28.02 26.2555 28.4334C26.5813 29.1583 26.4931 29.2147 26.3005 28.2173C26.1348 27.3592 25.9977 26.2773 25.9044 25.1113C25.8139 23.9799 25.7836 23.0142 25.7746 22.4559L-24.2189 23.2625ZM-6.89473 63.6902C0.9243 68.6228 10.9306 70 30.6939 70V20C21.0822 20 16.748 19.5481 15.2178 19.3065C14.5159 19.1957 14.9874 19.2164 16.1009 19.6091C16.7081 19.8233 17.4456 20.1264 18.2626 20.5418C18.6628 20.7454 19.0191 20.9439 19.3225 21.1222C19.6053 21.2885 19.8201 21.4253 19.7829 21.4018L-6.89473 63.6902ZM30.6939 70C40.6486 70 47.9319 69.5903 53.4245 68.7662C58.5644 67.995 65.0184 66.4886 70.7847 62.147L40.7099 22.2032C42.8243 20.6112 44.7198 19.8158 45.7594 19.462C46.6609 19.1552 46.9099 19.1839 46.0056 19.3196C44.1074 19.6044 39.6704 20 30.6939 20V70ZM70.7694 62.1585C76.9256 57.5307 79.9682 51.5794 81.4512 48.0025C83.0637 44.1134 83.9378 40.3016 84.454 37.3655C85.4895 31.4756 85.6336 25.823 85.6417 22.8774L35.6419 22.7395C35.6397 23.5315 35.6165 24.5889 35.5414 25.7287C35.4642 26.8996 35.3471 27.9238 35.2093 28.7074C35.0509 29.6084 34.9775 29.5431 35.2638 28.8526C35.4258 28.4618 35.8155 27.5976 36.5658 26.4985C37.3147 25.4012 38.6309 23.766 40.7253 22.1916L70.7694 62.1585ZM85.6417 22.735C85.6346 20.3201 85.5244 14.6707 84.5594 8.68339C84.081 5.71562 83.2629 1.81298 81.7319 -2.15339C80.3909 -5.62772 77.381 -12.1731 70.7762 -17.1417L40.7185 22.815C38.3723 21.0501 36.9856 19.2111 36.2705 18.1078C35.544 16.987 35.1991 16.1441 35.0861 15.8513C34.9607 15.5265 34.9499 15.4296 35.0008 15.6359C35.0478 15.826 35.1187 16.157 35.1964 16.6396C35.3566 17.6332 35.476 18.8258 35.5505 20.0603C35.6231 21.2637 35.6401 22.2859 35.6419 22.8819L85.6417 22.735ZM55.7473 27.8367H55.7492V-22.1633H55.7473V27.8367ZM38.5496 19.0211C40.3345 17.6801 41.9184 16.8814 42.8746 16.4501C43.8944 15.9901 44.6997 15.7251 45.1534 15.5894C46.0199 15.3303 46.2457 15.3531 45.3878 15.4719C43.6565 15.7115 39.3701 16.0954 30.6939 16.0954V66.0954C40.4986 66.0954 47.3223 65.6809 52.244 64.9996C54.7126 64.6578 57.1505 64.1896 59.4792 63.4932C61.4512 62.9034 65.0189 61.6738 68.5832 58.9958L38.5496 19.0211ZM30.6939 16.0954C22.2991 16.0954 18.066 15.7477 16.279 15.5184C15.3975 15.4054 15.5016 15.3692 16.2086 15.5615C16.703 15.696 18.9669 16.3244 21.715 18.059L-4.97331 60.3406C0.34535 63.6977 6.22495 64.6385 9.91758 65.1121C14.6485 65.7189 21.2228 66.0954 30.6939 66.0954V16.0954ZM21.6481 18.0169C24.6564 19.9025 26.5104 22.0193 27.4533 23.2358C28.461 24.536 29.0631 25.6349 29.3716 26.2495C29.971 27.4437 30.1027 28.0964 30.0314 27.8199C29.9098 27.3481 29.5622 25.5673 29.5123 22.4474L-20.4813 23.2477C-20.3836 29.3502 -19.7053 35.1804 -18.3869 40.2966C-17.7382 42.814 -16.7831 45.7549 -15.3148 48.6801C-14.2203 50.8605 -11.2161 56.4278 -4.90644 60.3826L21.6481 18.0169ZM29.5123 23.2486C29.5618 20.1618 29.913 18.0722 30.1209 17.2194C30.2377 16.7403 30.1771 17.1915 29.6977 18.2193C29.4543 18.7413 28.9094 19.8312 27.9431 21.1638C27.0879 22.3432 25.1051 24.8315 21.6538 26.9948L-4.90084 -15.3709C-11.8006 -11.0462 -14.7863 -4.69399 -15.6157 -2.9158C-16.9633 -0.0266258 -17.8498 2.88836 -18.4568 5.3782C-19.6963 10.4632 -20.3832 16.3321 -20.4813 22.4464L29.5123 23.2486ZM21.6955 26.9686C18.9754 28.681 16.7393 29.3057 16.2407 29.4419C15.5365 29.6343 15.4336 29.5981 16.3112 29.4848C18.0919 29.2548 22.317 28.9046 30.6958 28.9046V-21.0954C21.2273 -21.0954 14.6478 -20.7156 9.90823 -20.1036C6.1799 -19.6222 0.342513 -18.6719 -4.94257 -15.3447L21.6955 26.9686ZM30.6958 28.9046C39.3584 28.9046 43.6361 29.291 45.36 29.5312C46.2131 29.6501 45.9874 29.6726 45.1225 29.4128C44.6694 29.2768 43.8702 29.0125 42.859 28.5555C41.907 28.1253 40.3504 27.3381 38.5955 26.0256L68.5411 -14.0152C65.0185 -16.6497 61.497 -17.8757 59.5049 -18.474C57.175 -19.1737 54.7347 -19.6456 52.2601 -19.9904C47.3286 -20.6775 40.499 -21.0954 30.6958 -21.0954V28.9046ZM38.5414 25.985C35.6071 23.7781 33.9498 21.453 33.2324 20.3533C32.4182 19.1053 31.9608 18.1028 31.7531 17.614C31.3451 16.6537 31.3017 16.251 31.4033 16.7167C31.5871 17.5593 31.8989 19.6576 31.908 22.8907L81.9078 22.7496C81.8907 16.7134 81.3335 11.0064 80.2544 6.05999C79.7246 3.63121 78.9514 0.838074 77.7711 -1.93962C77.0089 -3.73332 74.4922 -9.53943 68.5952 -13.9746L38.5414 25.985ZM31.908 22.7507C31.8987 26.0789 31.5802 27.8784 31.475 28.3304C31.4154 28.5864 31.5255 27.9782 32.0465 26.846C32.3145 26.2635 32.8245 25.2508 33.6743 24.0345C34.4677 22.8991 36.01 20.9316 38.5364 19.0305L68.6002 58.9825C73.9341 54.9688 76.4707 49.9151 77.4683 47.7472C78.7604 44.9391 79.6011 42.1246 80.1743 39.6606C81.3348 34.6726 81.8909 28.9773 81.9078 22.8896L31.908 22.7507ZM35.5253 21.7019L35.5234 21.7038L71.6094 56.3131L71.6113 56.3112L35.5253 21.7019ZM56.3751 -0.0827276L39.5595 -10.8632L12.574 31.2294L29.3896 42.0098L56.3751 -0.0827276ZM39.426 -10.9482C30.8664 -16.3596 20.0754 -16.4542 11.4673 -11.3689L36.8986 31.6804C29.4604 36.0746 20.1121 35.9956 12.7075 31.3143L39.426 -10.9482ZM11.4742 -11.373C2.97017 -6.35296 -1.76828 2.65985 -1.76828 11.8562H48.2317C48.2317 19.6469 44.2184 27.3595 36.8917 31.6845L11.4742 -11.373ZM-1.76828 11.8562V33.4191H48.2317V11.8562H-1.76828ZM-1.76828 33.4191C-1.76828 42.5752 2.94099 51.6394 11.5273 56.6795L36.8386 13.5595C44.2476 17.9085 48.2317 25.6686 48.2317 33.4191H-1.76828ZM11.4624 56.6413C15.6431 59.1124 20.3613 60.3714 25.1005 60.3714V10.3714C29.2081 10.3714 33.2909 11.4625 36.9035 13.5977L11.4624 56.6413ZM25.1005 60.3714C30.0951 60.3714 35.0472 58.9728 39.3622 56.2624L12.7675 13.9219C16.492 11.5825 20.7713 10.3714 25.1005 10.3714V60.3714ZM39.561 56.1363L56.3767 45.3519L29.3843 3.26374L12.5687 14.0481L39.561 56.1363ZM56.2106 45.4575C64.3291 40.3406 68.7831 31.5525 68.7831 22.6367H18.7831C18.7831 15.0874 22.5532 7.56833 29.5504 3.15816L56.2106 45.4575ZM68.7831 22.6367C68.7831 13.7481 64.3514 4.94487 56.2106 -0.186089L29.5504 42.1132C22.5309 37.689 18.7831 30.1586 18.7831 22.6367H68.7831ZM42.8805 45.9636H42.8824V-4.03644H42.8805V45.9636ZM51.9712 29.9616V15.3137H1.97123V29.9616H51.9712ZM13.4012 36.3102L24.7319 43.6332L51.8719 1.64013L40.5413 -5.68286L13.4012 36.3102ZM24.7293 1.64178L13.3986 8.96673L40.5438 50.9565L51.8745 43.6315L24.7293 1.64178Z" fill="black" mask="url(#path-1-inside-1_81_330)"/>
</svg>
